<?xml version="1.0" encoding="utf-8"?>
<!-- Generator: Adobe Illustrator 27.5.0, SVG Export Plug-In . SVG Version: 6.00 Build 0)  -->
<svg version="1.1" xmlns="http://www.w3.org/2000/svg" xmlns:xlink="http://www.w3.org/1999/xlink" x="0px" y="0px"
	 viewBox="0 0 500 500" style="enable-background:new 0 0 500 500;" xml:space="preserve">
<g id="Background_Complete">
	<g>
		<rect y="382.398" style="fill:#EBEBEB;" width="500" height="0.25"/>
		<rect x="416.779" y="398.494" style="fill:#EBEBEB;" width="33.122" height="0.25"/>
		<rect x="333.381" y="398.494" style="fill:#EBEBEB;" width="70.806" height="0.25"/>
		<rect x="275.141" y="389.208" style="fill:#EBEBEB;" width="19.192" height="0.25"/>
		<rect x="52.459" y="390.888" style="fill:#EBEBEB;" width="34.29" height="0.25"/>
		<rect x="95.652" y="390.888" style="fill:#EBEBEB;" width="62.348" height="0.25"/>
		<rect x="188.333" y="395.111" style="fill:#EBEBEB;" width="36.814" height="0.25"/>
		<path style="fill:#EBEBEB;" d="M237.014,337.8H43.915c-3.147,0-5.708-2.561-5.708-5.708V60.66c0-3.147,2.561-5.708,5.708-5.708
			h193.099c3.146,0,5.707,2.561,5.707,5.708v271.432C242.721,335.239,240.16,337.8,237.014,337.8z M43.915,55.203
			c-3.01,0-5.458,2.448-5.458,5.458v271.432c0,3.01,2.448,5.458,5.458,5.458h193.099c3.009,0,5.457-2.448,5.457-5.458V60.66
			c0-3.009-2.448-5.458-5.457-5.458H43.915z"/>
		<path style="fill:#EBEBEB;" d="M453.31,337.8H260.212c-3.147,0-5.707-2.561-5.707-5.708V60.66c0-3.147,2.561-5.708,5.707-5.708
			H453.31c3.148,0,5.708,2.561,5.708,5.708v271.432C459.019,335.239,456.458,337.8,453.31,337.8z M260.212,55.203
			c-3.009,0-5.457,2.448-5.457,5.458v271.432c0,3.01,2.448,5.458,5.457,5.458H453.31c3.01,0,5.458-2.448,5.458-5.458V60.66
			c0-3.009-2.448-5.458-5.458-5.458H260.212z"/>
	</g>
	<g>
		<g>
			<g>
				<g>
					<g>
						
							<rect x="64.316" y="74.779" transform="matrix(-1 -1.224647e-16 1.224647e-16 -1 387.746 306.3389)" style="fill:#E6E6E6;" width="259.113" height="156.781"/>
						
							<rect x="60.273" y="74.779" transform="matrix(-1 -1.224647e-16 1.224647e-16 -1 381.946 306.3389)" style="fill:#F5F5F5;" width="261.399" height="156.781"/>
						
							<rect x="120.425" y="29.727" transform="matrix(-1.836970e-16 1 -1 -1.836970e-16 344.1425 -37.8036)" style="fill:#FAFAFA;" width="141.096" height="246.885"/>
						<polygon style="fill:#FFFFFF;" points="294.885,223.718 241.729,82.621 219.348,82.621 272.504,223.718 						"/>
						<polygon style="fill:#FFFFFF;" points="266.16,223.718 213.003,82.621 197.592,82.621 250.749,223.718 						"/>
						<polygon style="fill:#FFFFFF;" points="172.245,223.718 119.088,82.621 103.677,82.621 156.833,223.718 						"/>
						
							<rect x="54.818" y="148.841" transform="matrix(-1.836970e-16 1 -1 -1.836970e-16 278.5361 27.803)" style="fill:#E6E6E6;" width="141.096" height="8.658"/>
						
							<rect x="191.831" y="148.841" transform="matrix(-1.836970e-16 1 -1 -1.836970e-16 415.549 -109.2098)" style="fill:#E6E6E6;" width="141.096" height="8.658"/>
						
							<rect x="46.711" y="147.27" transform="matrix(-1.836970e-16 1 -1 -1.836970e-16 275.4043 30.0797)" style="fill:#F5F5F5;" width="151.903" height="10.944"/>
						
							<rect x="183.724" y="147.27" transform="matrix(-1.836970e-16 1 -1 -1.836970e-16 412.4171 -106.9332)" style="fill:#F5F5F5;" width="151.903" height="10.944"/>
						
							<rect x="-2.632" y="152.784" transform="matrix(-1.836970e-16 1 -1 -1.836970e-16 221.0853 85.2537)" style="fill:#E6E6E6;" width="141.096" height="0.77"/>
					</g>
				</g>
			</g>
			<g>
				<g>
					<path style="fill:#E6E6E6;" d="M57.258,64.694h274.031c0.532,0,0.967,0.435,0.967,0.967v0.065c0,0.532-0.435,0.967-0.967,0.967
						H57.258c-0.532,0-0.967-0.435-0.967-0.967v-0.065C56.291,65.129,56.726,64.694,57.258,64.694z"/>
					<path style="fill:#E6E6E6;" d="M323.43,68.493L323.43,68.493c0.695,0,1.264-0.569,1.264-1.264v-3.072
						c0-0.695-0.569-1.264-1.264-1.264l0,0c-0.695,0-1.264,0.569-1.264,1.264v3.072C322.166,67.924,322.735,68.493,323.43,68.493z"
						/>
					<path style="fill:#E6E6E6;" d="M71.341,68.493L71.341,68.493c0.695,0,1.264-0.569,1.264-1.264v-3.072
						c0-0.695-0.569-1.264-1.264-1.264l0,0c-0.695,0-1.264,0.569-1.264,1.264v3.072C70.077,67.924,70.646,68.493,71.341,68.493z"/>
				</g>
				
					<rect x="57.525" y="65.693" transform="matrix(-1 -1.224647e-16 1.224647e-16 -1 376.3172 243.2533)" style="opacity:0.6;fill:#EBEBEB;" width="261.266" height="111.866"/>
			</g>
		</g>
		<g>
			<g>
				<g>
					
						<rect x="368.922" y="106.81" transform="matrix(-1 -1.224647e-16 1.224647e-16 -1 803.9867 281.2491)" style="fill:#E0E0E0;" width="66.144" height="67.629"/>
					
						<rect x="364.934" y="106.81" transform="matrix(-1 -1.224647e-16 1.224647e-16 -1 798.257 281.2491)" style="fill:#F5F5F5;" width="68.39" height="67.629"/>
					
						<rect x="372.987" y="112.159" transform="matrix(6.123234e-17 -1 1 6.123234e-17 258.504 539.753)" style="fill:#FFFFFF;" width="52.283" height="56.931"/>
				</g>
			</g>
		</g>
		<g>
			<g>
				<g>
					<g>
						
							<rect x="416.159" y="260.668" transform="matrix(-1 -1.224647e-16 1.224647e-16 -1 850.8259 637.4532)" style="fill:#F0F0F0;" width="18.507" height="116.117"/>
						
							<rect x="227.208" y="376.785" transform="matrix(-1 -1.224647e-16 1.224647e-16 -1 658.3211 759.1835)" style="fill:#F0F0F0;" width="203.905" height="5.613"/>
						<rect x="223.654" y="260.668" style="fill:#F5F5F5;" width="192.505" height="116.117"/>
						
							<rect x="416.159" y="255.77" transform="matrix(-1 -1.224647e-16 1.224647e-16 -1 850.8259 516.4379)" style="fill:#E6E6E6;" width="18.507" height="4.898"/>
						<rect x="223.654" y="255.77" style="fill:#F0F0F0;" width="192.505" height="4.898"/>
						<path style="fill:#E0E0E0;" d="M409.505,301.249H230.309V270.95h179.196V301.249z M231.553,300.005h176.708v-27.811H231.553
							V300.005z"/>
						<path style="fill:#E0E0E0;" d="M409.505,366.503H230.309v-57.826h179.196V366.503z M231.553,365.259h176.708v-55.338H231.553
							V365.259z"/>
						
							<rect x="254.452" y="271.572" transform="matrix(-1 -1.224647e-16 1.224647e-16 -1 639.8136 547.1288)" style="fill:#E0E0E0;" width="130.91" height="3.984"/>
						
							<rect x="254.452" y="309.299" transform="matrix(-1 -1.224647e-16 1.224647e-16 -1 639.8136 622.5825)" style="fill:#E0E0E0;" width="130.91" height="3.984"/>
					</g>
				</g>
			</g>
			<g>
				<rect x="294.066" y="253.65" style="fill:#E0E0E0;" width="71.141" height="2.12"/>
				<polygon style="fill:#E0E0E0;" points="365.207,253.65 294.066,253.65 300.914,212.922 372.054,212.922 				"/>
				<polygon style="fill:#EBEBEB;" points="363.886,253.65 292.746,253.65 299.593,212.922 370.734,212.922 				"/>
				<path style="fill:#FAFAFA;" d="M295.448,250.449l5.822-34.63c0.074-0.441,0.455-0.763,0.902-0.763h64.958
					c0.566,0,0.996,0.508,0.902,1.066l-5.822,34.63c-0.074,0.44-0.455,0.763-0.902,0.763H296.35
					C295.784,251.515,295.354,251.007,295.448,250.449z"/>
				<rect x="277.971" y="253.65" style="fill:#F0F0F0;" width="71.141" height="2.12"/>
			</g>
		</g>
		<g>
			<path style="fill:#E6E6E6;" d="M169.072,242.881h-38.05c-8.579,0-16.318,7.428-18.342,17.604l-6.365,32.006l-13.079-0.052h-0.041
				c-6.235,0-11.591,5.335-12.762,12.71l-1.743,10.958c-2.632,0.457-4.888,2.876-5.526,6.08h78.594
				c8.571,0,16.303-7.421,18.325-17.588l9.14-45.959C180.86,250.413,176.009,242.881,169.072,242.881z M91.821,316.023h-9.668
				l1.622-10.103c0.865-5.433,4.826-9.383,9.42-9.383h0.034l12.271,0.049l-1.55,7.797
				C102.612,311.111,97.494,316.023,91.821,316.023z"/>
			<g>
				<polygon style="fill:#E0E0E0;" points="150.138,322.188 152.899,322.188 158.13,382.398 155.369,382.398 				"/>
				<polygon style="fill:#E0E0E0;" points="139.778,322.188 142.539,322.188 147.77,382.398 145.009,382.398 				"/>
			</g>
			<g>
				<polygon style="fill:#E0E0E0;" points="85.168,322.188 82.407,322.188 77.176,382.398 79.937,382.398 				"/>
				<polygon style="fill:#E0E0E0;" points="95.528,322.188 92.767,322.188 87.536,382.398 90.297,382.398 				"/>
			</g>
		</g>
	</g>
</g>
<g id="Background_Simple" style="display:none;">
	<g style="display:inline;">
		<path style="fill:#7c4397;" d="M72.15,218.406c6.866-41.35,55.874-73.702,99.438-83.823
			c48.202-11.198,65.049-29.865,102.321-54.674c96.322-64.113,187.655,15.273,162.231,105.858
			c-11.13,39.656-33.34,86.327-63.708,117.267c-43.15,43.962-67.661,22.986-124.234,7.365c-40.199-11.1-74.812,7.241-113.919-1.251
			C84.404,298.318,65.495,258.485,72.15,218.406z"/>
		<path style="opacity:0.9;fill:#FFFFFF;" d="M72.15,218.406c6.866-41.35,55.874-73.702,99.438-83.823
			c48.202-11.198,65.049-29.865,102.321-54.674c96.322-64.113,187.655,15.273,162.231,105.858
			c-11.13,39.656-33.34,86.327-63.708,117.267c-43.15,43.962-67.661,22.986-124.234,7.365c-40.199-11.1-74.812,7.241-113.919-1.251
			C84.404,298.318,65.495,258.485,72.15,218.406z"/>
	</g>
</g>
<g id="Shadow_1_">
	<ellipse id="_x3C_Path_x3E__350_" style="fill:#F5F5F5;" cx="250" cy="416.238" rx="193.889" ry="11.323"/>
</g>
<g id="Progress_indicator">
	<g>
		<g>
			<path style="fill:#7c4397;" d="M369.513,196.939H130.487c-7.418,0-13.487-6.069-13.487-13.487V91.987
				c0-7.418,6.069-13.487,13.487-13.487h239.026c7.418,0,13.487,6.069,13.487,13.487v91.465
				C383,190.87,376.931,196.939,369.513,196.939z"/>
			<path style="opacity:0.6;fill:#FFFFFF;" d="M369.513,196.939H130.487c-7.418,0-13.487-6.069-13.487-13.487V91.987
				c0-7.418,6.069-13.487,13.487-13.487h239.026c7.418,0,13.487,6.069,13.487,13.487v91.465
				C383,190.87,376.931,196.939,369.513,196.939z"/>
			<path style="opacity:0.9;fill:#FFFFFF;" d="M130.487,193.939c-5.782,0-10.487-4.705-10.487-10.487V91.987
				c0-5.782,4.705-10.487,10.487-10.487h239.025c5.782,0,10.487,4.705,10.487,10.487v91.465c0,5.782-4.705,10.487-10.487,10.487
				H130.487z"/>
			<g>
				<path style="fill:#263238;" d="M226.247,129.008v-7.158h2.7c0.476,0,0.838,0.023,1.089,0.068
					c0.352,0.059,0.646,0.17,0.884,0.334c0.237,0.165,0.429,0.395,0.573,0.691c0.145,0.296,0.218,0.622,0.218,0.977
					c0,0.609-0.193,1.124-0.581,1.545c-0.388,0.421-1.087,0.632-2.1,0.632h-1.836v2.91H226.247z M227.194,125.253h1.851
					c0.612,0,1.047-0.114,1.304-0.342c0.257-0.228,0.386-0.548,0.386-0.962c0-0.299-0.075-0.556-0.228-0.769
					c-0.15-0.213-0.35-0.354-0.598-0.422c-0.159-0.043-0.454-0.063-0.884-0.063h-1.831V125.253z"/>
				<path style="fill:#263238;" d="M232.794,129.008v-5.186h0.791v0.786c0.202-0.368,0.388-0.61,0.56-0.728
					c0.17-0.117,0.358-0.176,0.563-0.176c0.296,0,0.598,0.094,0.903,0.283l-0.303,0.815c-0.215-0.127-0.43-0.19-0.645-0.19
					c-0.192,0-0.364,0.058-0.518,0.173c-0.153,0.116-0.262,0.276-0.327,0.481c-0.098,0.313-0.146,0.654-0.146,1.025v2.715H232.794z"
					/>
				<path style="fill:#263238;" d="M235.807,126.415c0-0.96,0.267-1.671,0.801-2.134c0.446-0.384,0.989-0.576,1.631-0.576
					c0.713,0,1.296,0.233,1.748,0.701c0.452,0.467,0.679,1.112,0.679,1.936c0,0.668-0.101,1.192-0.3,1.575
					c-0.201,0.382-0.492,0.68-0.875,0.891c-0.382,0.211-0.8,0.317-1.252,0.317c-0.726,0-1.313-0.233-1.76-0.698
					C236.031,127.962,235.807,127.291,235.807,126.415z M236.71,126.415c0,0.664,0.145,1.161,0.435,1.492
					c0.29,0.331,0.654,0.496,1.094,0.496c0.436,0,0.799-0.166,1.089-0.498c0.29-0.332,0.435-0.838,0.435-1.519
					c0-0.641-0.146-1.127-0.438-1.457c-0.291-0.331-0.653-0.496-1.086-0.496c-0.439,0-0.804,0.165-1.094,0.493
					C236.855,125.255,236.71,125.752,236.71,126.415z"/>
				<path style="fill:#263238;" d="M241.535,129.438l0.855,0.127c0.036,0.264,0.135,0.456,0.298,0.576
					c0.218,0.163,0.516,0.244,0.894,0.244c0.407,0,0.721-0.082,0.942-0.244c0.222-0.163,0.371-0.391,0.449-0.684
					c0.046-0.179,0.066-0.555,0.063-1.128c-0.384,0.453-0.862,0.679-1.436,0.679c-0.713,0-1.265-0.257-1.655-0.771
					c-0.391-0.514-0.586-1.131-0.586-1.851c0-0.495,0.09-0.951,0.268-1.37c0.179-0.419,0.439-0.741,0.778-0.969
					c0.341-0.228,0.74-0.342,1.199-0.342c0.612,0,1.116,0.248,1.514,0.742v-0.625h0.811v4.482c0,0.807-0.082,1.379-0.246,1.716
					c-0.165,0.337-0.426,0.603-0.781,0.798c-0.357,0.195-0.796,0.293-1.316,0.293c-0.618,0-1.118-0.139-1.499-0.417
					C241.706,130.417,241.522,129.998,241.535,129.438z M242.262,126.323c0,0.68,0.135,1.177,0.405,1.489
					c0.271,0.313,0.608,0.469,1.016,0.469c0.403,0,0.742-0.155,1.016-0.466c0.273-0.311,0.41-0.798,0.41-1.462
					c0-0.635-0.141-1.113-0.422-1.436c-0.282-0.322-0.621-0.483-1.018-0.483c-0.391,0-0.723,0.159-0.996,0.476
					C242.399,125.227,242.262,125.698,242.262,126.323z"/>
				<path style="fill:#263238;" d="M247.248,129.008v-5.186h0.791v0.786c0.202-0.368,0.388-0.61,0.559-0.728
					c0.17-0.117,0.358-0.176,0.564-0.176c0.296,0,0.598,0.094,0.903,0.283l-0.303,0.815c-0.215-0.127-0.43-0.19-0.645-0.19
					c-0.192,0-0.364,0.058-0.518,0.173s-0.262,0.276-0.327,0.481c-0.098,0.313-0.146,0.654-0.146,1.025v2.715H247.248z"/>
				<path style="fill:#263238;" d="M254.137,127.338l0.908,0.112c-0.143,0.531-0.408,0.942-0.796,1.235
					c-0.388,0.293-0.882,0.439-1.484,0.439c-0.759,0-1.36-0.233-1.804-0.701c-0.445-0.467-0.667-1.122-0.667-1.965
					c0-0.873,0.225-1.549,0.674-2.031c0.449-0.482,1.032-0.723,1.748-0.723c0.693,0,1.26,0.236,1.699,0.708
					c0.439,0.472,0.659,1.136,0.659,1.992c0,0.052-0.002,0.13-0.005,0.234h-3.867c0.032,0.57,0.193,1.006,0.483,1.309
					c0.29,0.303,0.651,0.454,1.084,0.454c0.322,0,0.598-0.084,0.825-0.254C253.823,127.979,254.003,127.71,254.137,127.338z
					 M251.251,125.918h2.896c-0.039-0.436-0.149-0.763-0.332-0.982c-0.28-0.338-0.643-0.508-1.089-0.508
					c-0.403,0-0.743,0.135-1.019,0.405C251.433,125.104,251.281,125.465,251.251,125.918z"/>
				<path style="fill:#263238;" d="M255.797,127.46l0.869-0.137c0.049,0.348,0.185,0.615,0.407,0.801
					c0.224,0.186,0.535,0.278,0.936,0.278c0.403,0,0.703-0.082,0.898-0.247c0.195-0.165,0.293-0.357,0.293-0.579
					c0-0.199-0.086-0.355-0.259-0.469c-0.12-0.078-0.42-0.177-0.898-0.298c-0.645-0.163-1.091-0.304-1.341-0.422
					c-0.248-0.119-0.438-0.283-0.566-0.493c-0.128-0.21-0.192-0.442-0.192-0.696c0-0.231,0.053-0.445,0.159-0.642
					c0.105-0.197,0.249-0.36,0.432-0.491c0.137-0.101,0.323-0.187,0.559-0.256c0.236-0.07,0.489-0.105,0.76-0.105
					c0.407,0,0.764,0.059,1.072,0.176c0.307,0.117,0.534,0.276,0.681,0.476c0.146,0.2,0.247,0.468,0.303,0.803l-0.859,0.117
					c-0.039-0.267-0.152-0.475-0.339-0.625c-0.188-0.15-0.452-0.225-0.794-0.225c-0.403,0-0.691,0.067-0.864,0.2
					c-0.173,0.133-0.259,0.29-0.259,0.469c0,0.114,0.036,0.216,0.107,0.308c0.071,0.094,0.184,0.172,0.337,0.234
					c0.088,0.033,0.347,0.107,0.776,0.225c0.622,0.166,1.056,0.302,1.302,0.408c0.245,0.106,0.439,0.26,0.578,0.461
					c0.14,0.202,0.21,0.453,0.21,0.752c0,0.293-0.085,0.569-0.257,0.828c-0.17,0.259-0.417,0.459-0.739,0.601
					s-0.687,0.212-1.094,0.212c-0.674,0-1.188-0.14-1.54-0.42C256.121,128.426,255.895,128.011,255.797,127.46z"/>
				<path style="fill:#263238;" d="M260.797,127.46l0.869-0.137c0.049,0.348,0.185,0.615,0.407,0.801
					c0.224,0.186,0.535,0.278,0.936,0.278c0.403,0,0.703-0.082,0.898-0.247c0.195-0.165,0.293-0.357,0.293-0.579
					c0-0.199-0.086-0.355-0.259-0.469c-0.12-0.078-0.42-0.177-0.898-0.298c-0.645-0.163-1.091-0.304-1.341-0.422
					c-0.248-0.119-0.438-0.283-0.566-0.493c-0.128-0.21-0.192-0.442-0.192-0.696c0-0.231,0.053-0.445,0.159-0.642
					c0.105-0.197,0.249-0.36,0.432-0.491c0.137-0.101,0.323-0.187,0.559-0.256c0.236-0.07,0.489-0.105,0.76-0.105
					c0.407,0,0.764,0.059,1.072,0.176c0.307,0.117,0.534,0.276,0.681,0.476c0.146,0.2,0.247,0.468,0.303,0.803l-0.859,0.117
					c-0.039-0.267-0.152-0.475-0.339-0.625c-0.188-0.15-0.452-0.225-0.794-0.225c-0.403,0-0.691,0.067-0.864,0.2
					c-0.173,0.133-0.259,0.29-0.259,0.469c0,0.114,0.036,0.216,0.107,0.308c0.071,0.094,0.184,0.172,0.337,0.234
					c0.088,0.033,0.347,0.107,0.776,0.225c0.622,0.166,1.056,0.302,1.302,0.408c0.245,0.106,0.439,0.26,0.578,0.461
					c0.14,0.202,0.21,0.453,0.21,0.752c0,0.293-0.085,0.569-0.257,0.828c-0.17,0.259-0.417,0.459-0.739,0.601
					s-0.687,0.212-1.094,0.212c-0.674,0-1.188-0.14-1.54-0.42C261.121,128.426,260.895,128.011,260.797,127.46z"/>
				<path style="fill:#263238;" d="M266.398,129.008v-1.001h1.001v1.001H266.398z"/>
				<path style="fill:#263238;" d="M269.176,129.008v-1.001h1.001v1.001H269.176z"/>
				<path style="fill:#263238;" d="M271.955,129.008v-1.001h1.001v1.001H271.955z"/>
			</g>
		</g>
		<path style="opacity:0.7;fill:#7c4397;" d="M369.513,81.501H130.487c-5.782,0-10.487,4.705-10.487,10.487v11.243h260V91.987
			C380,86.205,375.295,81.501,369.513,81.501z"/>
		<path style="fill:#FFFFFF;" d="M140.833,92.366c0-2.1-1.702-3.802-3.802-3.802c-2.1,0-3.802,1.702-3.802,3.802
			s1.702,3.802,3.802,3.802C139.131,96.167,140.833,94.465,140.833,92.366z"/>
		<path style="fill:#FFFFFF;" d="M155.833,92.366c0-2.1-1.702-3.802-3.802-3.802c-2.1,0-3.802,1.702-3.802,3.802
			s1.702,3.802,3.802,3.802C154.131,96.167,155.833,94.465,155.833,92.366z"/>
		<path style="fill:#FFFFFF;" d="M170.833,92.366c0-2.1-1.702-3.802-3.802-3.802c-2.1,0-3.802,1.702-3.802,3.802
			s1.702,3.802,3.802,3.802C169.131,96.167,170.833,94.465,170.833,92.366z"/>
		<path style="opacity:0.1;fill:#7c4397;" d="M362.342,152.342H137.658c-1.829,0-3.325-1.496-3.325-3.325l0,0
			c0-1.829,1.496-3.325,3.325-3.325h224.683c1.829,0,3.325,1.496,3.325,3.325l0,0C365.666,150.845,364.17,152.342,362.342,152.342z"
			/>
		<path style="fill:#7c4397;" d="M304.509,152.342h-166.85c-1.829,0-3.325-1.496-3.325-3.325l0,0c0-1.829,1.496-3.325,3.325-3.325
			h166.85c1.829,0,3.325,1.496,3.325,3.325l0,0C307.833,150.845,306.337,152.342,304.509,152.342z"/>
		<g>
			<path style="fill:#263238;" d="M320.969,167.227h-8.514l-4.622-4.622l-4.622,4.622h-8.514c-2.007,0-3.649,1.642-3.649,3.649
				v10.581c0,2.007,1.642,3.649,3.649,3.649h26.271c2.007,0,3.649-1.642,3.649-3.649v-10.581
				C324.618,168.869,322.976,167.227,320.969,167.227z"/>
			<g>
				<path style="fill:#FFFFFF;" d="M298.734,173.161h4.714v1.09c-0.41,0.37-0.752,0.77-1.027,1.201
					c-0.333,0.523-0.596,1.106-0.789,1.748c-0.153,0.5-0.256,1.09-0.309,1.772h-1.61c0.127-0.949,0.326-1.744,0.599-2.387
					c0.272-0.642,0.703-1.329,1.293-2.062h-2.871V173.161z"/>
				<path style="fill:#FFFFFF;" d="M304.776,173.161h3.834v1.288h-2.597l-0.139,0.872c0.18-0.084,0.357-0.148,0.533-0.19
					s0.349-0.063,0.521-0.063c0.582,0,1.053,0.176,1.415,0.527c0.362,0.352,0.543,0.794,0.543,1.328
					c0,0.375-0.093,0.736-0.279,1.082c-0.186,0.346-0.451,0.611-0.793,0.793c-0.342,0.182-0.78,0.273-1.314,0.273
					c-0.383,0-0.712-0.036-0.985-0.109c-0.273-0.073-0.506-0.181-0.698-0.325c-0.192-0.144-0.347-0.307-0.466-0.49
					c-0.119-0.182-0.218-0.41-0.297-0.682l1.633-0.178c0.04,0.262,0.132,0.461,0.277,0.597c0.145,0.136,0.319,0.204,0.519,0.204
					c0.225,0,0.41-0.085,0.557-0.256s0.22-0.425,0.22-0.763c0-0.346-0.074-0.6-0.222-0.761c-0.148-0.161-0.345-0.242-0.591-0.242
					c-0.156,0-0.307,0.038-0.452,0.115c-0.108,0.055-0.227,0.156-0.357,0.301l-1.376-0.198L304.776,173.161z"/>
				<path style="fill:#FFFFFF;" d="M309.598,174.588c0-0.27,0.059-0.526,0.176-0.769c0.118-0.243,0.297-0.43,0.539-0.561
					c0.242-0.131,0.528-0.196,0.858-0.196c0.486,0,0.87,0.139,1.15,0.416c0.28,0.277,0.42,0.647,0.42,1.11
					c0,0.465-0.14,0.837-0.42,1.114c-0.28,0.278-0.663,0.416-1.15,0.416c-0.33,0-0.617-0.065-0.858-0.196
					c-0.242-0.131-0.422-0.318-0.539-0.561C309.656,175.118,309.598,174.861,309.598,174.588z M310.712,174.596
					c0,0.328,0.053,0.566,0.159,0.714c0.069,0.098,0.169,0.147,0.301,0.147c0.132,0,0.231-0.049,0.297-0.147
					c0.106-0.148,0.159-0.386,0.159-0.714c0-0.325-0.053-0.563-0.159-0.714c-0.066-0.095-0.165-0.143-0.297-0.143
					c-0.132,0-0.233,0.048-0.301,0.143C310.764,174.031,310.712,174.269,310.712,174.596z M314.532,173.062h0.838l-3.358,6.209
					h-0.829L314.532,173.062z M313.788,177.732c0-0.272,0.058-0.529,0.174-0.771c0.116-0.242,0.296-0.429,0.539-0.561
					c0.243-0.132,0.529-0.198,0.856-0.198c0.489,0,0.874,0.139,1.154,0.418c0.28,0.279,0.42,0.65,0.42,1.112
					c0,0.462-0.14,0.833-0.42,1.112c-0.28,0.279-0.665,0.418-1.154,0.418c-0.328,0-0.613-0.066-0.856-0.198
					s-0.423-0.319-0.539-0.561C313.846,178.262,313.788,178.005,313.788,177.732z M314.902,177.74c0,0.328,0.053,0.566,0.159,0.714
					c0.066,0.095,0.165,0.143,0.297,0.143c0.132,0,0.233-0.048,0.301-0.143c0.106-0.148,0.159-0.386,0.159-0.714
					s-0.053-0.567-0.159-0.718c-0.069-0.095-0.169-0.143-0.301-0.143c-0.132,0-0.231,0.049-0.297,0.147
					C314.955,177.175,314.902,177.413,314.902,177.74z"/>
			</g>
		</g>
	</g>
</g>
<g id="Character_1_">
	<g>
		<path style="opacity:0.1;fill:#7c4397;" d="M249.689,188.717l1.007-4.211c0.216-0.904-0.347-1.644-1.251-1.644h-15.212
			c-2.494-13.682-11.342-23.735-8.794-40.352c5.005-7.855-12.976-37.065-26.07-19.51c-16.925,1.112-1.27,32.87-33.48,40.99
			c-23.69,5.97-36.682,19.723-41.906,31.262c1.932,1.072,4.148,1.688,6.503,1.688h0.604c3.597-7.735,7.959-12.087,8.229-12.35
			c-0.127,0.285-2.473,5.439-4.565,12.35h116.408l0.288-6.52C251.499,189.348,250.65,188.614,249.689,188.717z"/>
		<g>
			<g>
				<g>
					<path style="fill:#263238;" d="M214.56,194.63c-1.96,15.2-4.263,45.182-45.868,48.148
						c-27.481,1.949-39.533-24.168-56.833-32.688c1.53-12.48,7.26-25.05,7.46-25.5c-0.38,0.37-8.92,8.85-11.94,23.55
						c-1.98-0.73-4.03-1.33-6.16-1.75c0-11.76,12.45-34.28,44.67-42.4c32.21-8.12,16.554-39.878,33.48-40.99
						c13.094-17.556,31.074,11.654,26.07,19.51C202.22,163.51,217.21,174.02,214.56,194.63z"/>
					<path style="fill:#FFB573;" d="M230.273,195.206c-0.391-2.314-3.15-3.327-4.945-1.814l-5.035,4.242
						c-0.585,0.76-0.767,1.756-0.487,2.673l0.89,2.915c2.364,0.25,4.909-0.335,6.903-1.004c2.098-0.704,3.382-2.814,3.014-4.996
						L230.273,195.206z"/>
					<path style="fill:#FFB573;" d="M201.981,177.717c0.199,1.107,0.467,2.456,0.73,3.698c0.272,1.265,0.544,2.537,0.851,3.799
						c0.593,2.529,1.283,5.026,2.011,7.491c0.758,2.454,1.606,4.849,2.53,7.181c0.972,2.298,2.028,4.506,3.224,6.555l-2.579-2.047
						c0.418,0.225,0.866,0.479,1.805,0.356c0.898-0.101,2.103-0.505,3.31-1.16c1.225-0.641,2.484-1.481,3.723-2.423
						c1.229-0.917,2.504-2.035,3.626-3.005l0.234-0.202c1.254-1.084,3.15-0.945,4.233,0.309c0.799,0.925,0.932,2.202,0.444,3.241
						c-0.87,1.848-1.819,3.382-2.963,4.969c-1.137,1.559-2.448,3.044-4.015,4.434c-1.591,1.351-3.438,2.675-5.87,3.511
						c-1.202,0.419-2.559,0.713-4.009,0.749c-1.444,0.051-2.95-0.189-4.357-0.648c-0.993-0.324-1.804-0.949-2.363-1.742
						l-0.215-0.305c-1.804-2.551-3.35-5.187-4.664-7.88c-1.293-2.69-2.421-5.421-3.385-8.18c-0.966-2.755-1.776-5.542-2.482-8.346
						c-0.342-1.405-0.675-2.811-0.95-4.235c-0.294-1.444-0.524-2.796-0.747-4.4c-0.456-3.282,1.835-6.311,5.117-6.767
						c3.197-0.444,6.155,1.719,6.727,4.865L201.981,177.717z"/>
					<path style="fill:#7c4397;" d="M132.319,387.343c-1.55-7.014-1.156-8.656-2.419-12.5c-1.075-3.298-1.158-3.101-2.82-6.19
						c-1.101-2.046,0.993-3.677,3.081-3.939c1.626-0.204,3.351-0.278,5.348-0.596l4.324,8.058
						c-2.282,2.897-4.105,9.968-3.297,15.385C137.104,391.437,132.944,390.15,132.319,387.343z"/>
					<path style="fill:#263238;" d="M201.955,220.565c0,0,1.143,59.276,2.353,92.111c3.178,19.437-63.642,59.898-63.642,59.898
						c-1.43,0.678-5.213-6.73-5.158-8.457c0,0,28.737-42.331,45.861-52.553c-18.95-52.445-13.801-91-13.801-91H201.955z"/>
					<path style="opacity:0.2;" d="M167.572,220.57h21.687c0,0-4.335,57.94-9.167,87.36
						C162.662,257.35,167.572,220.57,167.572,220.57z"/>
					<path style="opacity:0.2;" d="M154.162,338.979c8.23-10.27,17.75-20.96,25.4-26.24c-1.09,10.16-2.21,22.42-3.07,34.97
						c-7.19,5.69-14.65,10.98-20.89,15.21C154.612,354.9,154.022,346.69,154.162,338.979z"/>
					<g>
						<path style="fill:#7c4397;" d="M144.859,371.108c-0.872,0.625-2.422,1.748-3.539,2.622c-0.37,0.289-0.891,0.223-1.189-0.14
							c-2.226-2.722-4.773-7.739-5.59-9.399c-0.162-0.329-0.093-0.721,0.166-0.979l2.799-2.781c0.382-0.379,1.015-0.315,1.313,0.133
							l6.247,9.38C145.321,370.328,145.233,370.84,144.859,371.108z"/>
						<path style="opacity:0.3;fill:#FFFFFF;" d="M144.859,371.108c-0.872,0.625-2.422,1.748-3.539,2.622
							c-0.37,0.289-0.891,0.223-1.189-0.14c-2.226-2.722-4.773-7.739-5.59-9.399c-0.162-0.329-0.093-0.721,0.166-0.979l2.799-2.781
							c0.382-0.379,1.015-0.315,1.313,0.133l6.247,9.38C145.321,370.328,145.233,370.84,144.859,371.108z"/>
					</g>
					<path style="fill:#7c4397;" d="M177.074,421.238c-7.309,0-6.792-0.113-10.911-0.251c-3.528-0.126-4.329,0.314-7.161,0.251
						c-2.366-0.05-2.484-2.311-1.992-4.911c0.245-1.306,0.665-2.901,0.976-5.011h11.102c1.769,2.876,4.967,5.036,9.136,5.589
						C182.204,417.433,179.988,421.238,177.074,421.238z"/>
					<path style="fill:#263238;" d="M191.644,220.565c0,0-11.484,63.203-15.689,91.85c-4.417,30.085-9.86,78.916-6.866,98.902
						c-1.622,0.995-7.634,1.055-11.102,0c0,0-17.544-68.609-2.888-97.571c-8.34-70.403,3.994-74.069,7.403-93.18H191.644z"/>
					<g>
						<path style="fill:#7c4397;" d="M169.549,407.155c0.124,1.008,0.375,2.764,0.759,4.105c0.138,0.484-0.147,0.932-0.626,1.01
							c-4.004,0.651-9.971-0.292-11.868-0.628c-0.363-0.064-0.66-0.348-0.75-0.706l-0.955-3.84c-0.13-0.525,0.238-0.997,0.771-0.987
							l11.757,0.226C169.093,406.343,169.493,406.7,169.549,407.155z"/>
						<path style="opacity:0.3;fill:#FFFFFF;" d="M169.549,407.155c0.124,1.008,0.375,2.764,0.759,4.105
							c0.138,0.484-0.147,0.932-0.626,1.01c-4.004,0.651-9.971-0.292-11.868-0.628c-0.363-0.064-0.66-0.348-0.75-0.706l-0.955-3.84
							c-0.13-0.525,0.238-0.997,0.771-0.987l11.757,0.226C169.093,406.343,169.493,406.7,169.549,407.155z"/>
					</g>
					<path style="fill:#FFFFFF;" d="M192.648,165.208c7.281,1.372,8.821,4.348,14.182,15.404
						c-1.617,7.274-10.321,13.669-10.321,13.669S180.642,174.612,192.648,165.208z"/>
					<path style="fill:#7c4397;" d="M162.502,220.565c-6.835,9.324-14.269,24.212-14.33,56.212c35.495,16,52.383,16,60.828,12
						c-6.091-24.675-7.045-68.212-7.045-68.212C196.333,214.333,162.502,220.565,162.502,220.565z"/>
					<path style="opacity:0.2;" d="M186.444,248.667c-3.111,11.5,0.073,23,2.814,25.555
						C187.381,267.583,186.444,248.667,186.444,248.667z"/>
					<path style="fill:#FFFFFF;" d="M204.19,178.985c0.12,3.879-0.261,8.569-1.132,17.803c-0.588,7.821,1.36,22.689-1.103,23.778
						c-6.216,1.748-22.545,0.947-39.453,0c-0.796-11.2-0.502-18.913-7.586-43.92c-1.643-5.798,2.021-11.366,7.869-11.96
						c1.563-0.159,3.221-0.291,4.923-0.373c6.615-0.32,12.039-0.532,17.915,0.001c1.947,0.176,3.965,0.421,5.895,0.689
						C198.48,165.969,203.975,172.033,204.19,178.985z"/>
					<path style="fill:#FFB573;" d="M174.072,146.944c0.981,5.89-1.633,13.522-5.379,17.368c0,0,5.46-0.82,17.052,6.349
						c3.357-4.814,0.863-6.349,0.863-6.349c-3.108-0.604-3.111-2.877-1.886-7.256L174.072,146.944z"/>
					<path style="fill:#7c4397;" d="M183.307,169.218c-3.818,0.543-5.014,6.31-5.014,6.31s-9.17-6.486-12.076-11.061
						c1.361-0.713,3.349-2.126,3.349-2.126S181.078,167.014,183.307,169.218z"/>
					<path style="fill:#7c4397;" d="M186.936,168.604c0,0,3.031,0.656,4.552,4.872c0.874-8.408-3.112-9.181-3.112-9.181
						s-1.244-1.071-3.498-0.715C187.905,165.178,186.936,168.604,186.936,168.604z"/>
					<path style="opacity:0.2;" d="M184.72,157.06l-6.25-5.94c0.11,1.05,0.28,2.25,0.51,3.46c0.59,3.11,2.76,5.98,5.1,7.69
						C183.78,161.07,184.08,159.36,184.72,157.06z"/>
					<path style="fill:#FFB573;" d="M176.488,133.431c-2.448,9.149-3.673,12.959-0.814,19.281c4.3,9.509,15.733,11.052,20.782,2.95
						c4.545-7.293,7.784-21.029,0.465-27.947C189.709,120.899,178.935,124.282,176.488,133.431z"/>
					<path style="fill:#263238;" d="M180.178,124.518c1.417,10.941,15.822,4.558,24.572,17.228
						C203.917,130.917,193.325,115.619,180.178,124.518z"/>
					<path style="fill:#263238;" d="M181.083,124.112c12.299,8.221-1.167,14.883-10.25,14.385
						C167.833,129.417,181.083,124.112,181.083,124.112z"/>
					<path style="opacity:0.2;" d="M187.292,140.309c0,0-1.326-1.752-3.157-1.811C185.651,139.823,187.292,140.309,187.292,140.309z
						"/>
					<path style="opacity:0.2;" d="M186.81,141.032c0,0-1.516-1.312-3.181-0.875C185.239,141.011,186.81,141.032,186.81,141.032z"/>
					<path style="fill:#263238;" d="M189.111,141.204c-0.239,0.759-0.051,1.524,0.42,1.708c0.471,0.185,1.046-0.281,1.284-1.04
						c0.239-0.759,0.051-1.524-0.42-1.708C189.925,139.98,189.35,140.445,189.111,141.204z"/>
					<path style="fill:#263238;" d="M197.926,144.81c-0.239,0.759-0.051,1.524,0.42,1.708c0.471,0.184,1.046-0.281,1.285-1.04
						c0.239-0.759,0.051-1.524-0.42-1.708C198.739,143.585,198.164,144.051,197.926,144.81z"/>
					<path style="fill:#263238;" d="M198.989,143.73l1.895,0.153C200.884,143.883,199.549,144.959,198.989,143.73z"/>
					<path style="fill:#ED893E;" d="M195.065,145.087c0,0,0.195,3.746,1.044,5.85c-1.245,0.563-2.727-0.499-2.727-0.499
						L195.065,145.087z"/>
					<path style="fill:#263238;" d="M188.359,151.62c0.351,0.216,0.741,0.413,1.173,0.583c0.117,0.046,0.243-0.017,0.282-0.14
						c0.039-0.122-0.022-0.258-0.142-0.306c-3.159-1.236-3.905-4.144-3.912-4.173c-0.031-0.129-0.153-0.209-0.272-0.18
						c-0.119,0.029-0.191,0.156-0.159,0.284C185.357,147.801,185.956,150.143,188.359,151.62z"/>
					<path style="fill:#FFB573;" d="M172.015,139.52c0.015,2.133,0.901,3.879,2.025,4.856c1.691,1.47,3.629-0.345,4.074-2.889
						c0.401-2.29,0.003-5.815-2.134-6.263C173.875,134.782,171.997,137.081,172.015,139.52z"/>
					<path style="fill:#263238;" d="M188.843,136.246c0.116,0.033,0.242,0.018,0.348-0.051c1.654-1.089,3.19-0.355,3.208-0.346
						c0.227,0.11,0.492,0.014,0.587-0.221c0.095-0.235-0.015-0.516-0.245-0.63c-0.08-0.039-2.008-0.963-4.06,0.389
						c-0.204,0.135-0.256,0.425-0.116,0.648C188.633,136.143,188.734,136.215,188.843,136.246z"/>
					<path style="fill:#263238;" d="M202.16,141.709c0.105,0.045,0.225,0.051,0.334,0.005c0.226-0.094,0.327-0.367,0.225-0.609
						c-1.025-2.434-3.073-2.914-3.16-2.933c-0.246-0.054-0.475,0.108-0.513,0.362c-0.038,0.254,0.13,0.504,0.375,0.56
						c0.08,0.018,1.665,0.414,2.479,2.35C201.952,141.569,202.048,141.661,202.16,141.709z"/>
					<path style="fill:#263238;" d="M190.174,140.125l1.895,0.153C192.069,140.277,190.734,141.353,190.174,140.125z"/>
					<path style="fill:#FFB573;" d="M160.813,179.631l-3.016,6.2c-1.005,2.088-1.971,4.192-2.902,6.283
						c-0.914,2.095-1.814,4.194-2.584,6.264c-0.753,2.067-1.462,4.134-1.884,6.017l-0.187-2.476
						c-0.038,0.096,0.168,0.614,0.518,1.186c0.348,0.581,0.861,1.234,1.431,1.881c1.149,1.298,2.529,2.642,4,3.919
						c1.462,1.3,3.021,2.565,4.605,3.826c1.574,1.257,3.242,2.512,4.811,3.733l0.091,0.071c1.31,1.019,1.546,2.907,0.527,4.217
						c-0.803,1.032-2.149,1.394-3.322,1.006c-2.14-0.713-4.106-1.535-6.108-2.447c-1.986-0.917-3.939-1.931-5.874-3.073
						c-1.919-1.168-3.841-2.412-5.706-4.017c-0.934-0.805-1.866-1.673-2.783-2.76c-0.91-1.091-1.826-2.374-2.519-4.271
						c-0.249-0.682-0.321-1.385-0.24-2.059l0.053-0.416c0.356-2.861,0.981-5.422,1.712-7.92c0.713-2.5,1.567-4.876,2.476-7.223
						c0.893-2.352,1.896-4.631,2.932-6.89c1.06-2.27,2.121-4.438,3.386-6.706c1.614-2.894,5.269-3.932,8.163-2.318
						c2.791,1.557,3.855,5.01,2.481,7.85L160.813,179.631z"/>
					<path style="fill:#FFFFFF;" d="M162.418,164.733c-6.499-0.016-9.346,1.514-16.533,13.451
						c1.606,5.126,11.909,11.405,11.909,11.405S168.895,175.265,162.418,164.733z"/>
				</g>
			</g>
			<path style="fill:#FFB573;" d="M173.272,224.46l-0.335-2.924c-0.126-1.1-0.776-2.071-1.745-2.607l-4.527-2.504
				c-1.81-1.001-3.992-1.064-5.857-0.168l-1.154,0.555c0.224,4.888,4.068,10.006,4.068,10.006l0.934,1.58
				c0.832,1.407,2.53,1.886,3.901,1.1l3.156-1.81C172.803,227.061,173.423,225.777,173.272,224.46z"/>
			<path style="fill:#7c4397;" d="M223.818,206.389h-34.276c-0.904,0-1.467-0.74-1.251-1.644l4.841-20.239
				c0.216-0.904,1.133-1.644,2.037-1.644h34.276c0.904,0,1.467,0.74,1.251,1.644l-4.841,20.239
				C225.639,205.649,224.722,206.389,223.818,206.389z"/>
			<path style="fill:#FFFFFF;" d="M189.673,204.764c-0.019,0-0.039-0.002-0.058-0.007c-0.134-0.032-0.217-0.167-0.185-0.301
				l4.516-18.879c0.242-1.012,1.265-1.836,2.28-1.836h32.636c0.138,0,0.25,0.112,0.25,0.25s-0.112,0.25-0.25,0.25h-32.636
				c-0.784,0-1.605,0.665-1.794,1.452l-4.516,18.879C189.889,204.686,189.786,204.764,189.673,204.764z"/>
			<path style="fill:#FFB573;" d="M229.133,188.862l-0.457,0.209c-1.419,0.647-2.419,2.049-2.514,3.523l-0.275,4.267
				c-0.12,1.854,1.214,3.268,3.062,3.25l0.281-0.003c0.981-0.01,1.832-0.861,1.877-1.878l0.345-7.81
				C231.508,189.143,230.297,188.33,229.133,188.862z"/>
		</g>
	</g>
</g>
<g id="Plant">
	<g>
		<g>
			<path style="fill:#263238;" d="M334.066,372.638c-3.275-14.657,3.272-49.832,6.033-57.788c2.761-7.956,21.683-17.48,33.185-22.63
				c11.502-5.15,32.559,8.871,32.559,8.871s-21.864-2.296-28.146,0.836c-6.283,3.132-19.657,12.727-24.046,20.939
				C349.262,331.078,334.773,355.443,334.066,372.638z"/>
			<path style="fill:#263238;" d="M294.14,316.113c15.048,1.579,27.39,11.871,31.313,15.026s5.474,15.723,6.059,23.234
				c0.584,7.511-11.547,16.541-11.547,16.541s5.693-11.844,5.194-16.011c-0.498-4.167-3.207-13.626-6.946-17.749
				C314.474,333.032,306.198,322.216,294.14,316.113z"/>
			<g>
				<path style="fill:#7c4397;" d="M329.9,363.13c1.41-20.54-8.414-34.069-7.014-50.326s19.737-52.547,21.32-62.804
					c3.053,9.081-10.21,52.745-9.63,64.595C335.156,326.444,341.397,350.32,329.9,363.13z"/>
				<path style="opacity:0.6;fill:#FFFFFF;" d="M329.9,363.13c1.41-20.54-8.414-34.069-7.014-50.326s19.737-52.547,21.32-62.804
					c3.053,9.081-10.21,52.745-9.63,64.595C335.156,326.444,341.397,350.32,329.9,363.13z"/>
			</g>
			<g>
				<path style="fill:#7c4397;" d="M314.896,283.49c8.741,1.618,10.588,9.316,10.588,9.316s-4.853,6.459-13.594,4.841
					c-6.678-1.236-9.019-4.963-8.189-8.873C304.531,284.866,308.219,282.255,314.896,283.49z"/>
				<path style="fill:#7c4397;" d="M335.748,293.687c-2.627,5.282-7.877,5.056-7.877,5.056s-3.236-4.275-0.609-9.558
					c2.007-4.035,4.813-4.849,7.156-3.606C336.762,286.822,337.755,289.652,335.748,293.687z"/>
				<path style="fill:#7c4397;" d="M331.23,328.376c4.163,4.18,2.268,9.081,2.268,9.081s-5.086,1.697-9.249-2.483
					c-3.18-3.193-3.053-6.112-1.125-7.934C325.051,325.217,328.049,325.182,331.23,328.376z"/>
				<path style="fill:#7c4397;" d="M339.261,347.139c-2.867,2.252-5.738,0.733-5.738,0.733s-0.672-3.245,2.195-5.497
					c2.191-1.72,3.973-1.431,4.951-0.115C341.648,343.576,341.452,345.419,339.261,347.139z"/>
				<path style="fill:#7c4397;" d="M345.501,318.616c-5.474,6.147-12.458,3.917-12.458,3.917s-2.787-6.943,2.687-13.09
					c4.182-4.696,8.258-4.763,10.956-2.23C349.384,309.746,349.684,313.92,345.501,318.616z"/>
				<path style="fill:#263238;" d="M330.745,363.814c-0.031,0-0.063-0.003-0.095-0.009c-0.271-0.052-0.449-0.314-0.397-0.585
					c7.098-37.084,0.506-69.282-19.596-95.7c-0.167-0.22-0.125-0.533,0.095-0.7c0.219-0.169,0.533-0.125,0.701,0.095
					c20.28,26.653,26.936,59.118,19.782,96.493C331.19,363.647,330.98,363.814,330.745,363.814z"/>
				<path style="fill:#7c4397;" d="M312.98,255.977c6.287,8.22,1.873,16.312,1.873,16.312s-9.234,1.79-15.521-6.43
					c-4.803-6.28-3.916-11.327-0.148-14.056C302.953,249.074,308.177,249.697,312.98,255.977z"/>
			</g>
		</g>
		<g>
			
				<rect x="300.329" y="372.156" transform="matrix(0.0703 -0.9975 0.9975 0.0703 -85.2092 653.8874)" style="fill:#7c4397;" width="15.721" height="1"/>
			
				<rect x="303.652" y="388.822" transform="matrix(0.0703 -0.9975 0.9975 0.0703 -102.9401 668.1934)" style="fill:#7c4397;" width="6.698" height="1"/>
			<polygon style="fill:#7c4397;" points="356.343,352.835 312.611,352.835 308.087,416.281 360.867,416.281 			"/>
			<path style="fill:#7c4397;" d="M367.276,408.723c-13.544,0-24.563-11.019-24.563-24.563c0-13.543,11.019-24.562,24.563-24.562
				s24.563,11.019,24.563,24.562C391.838,397.704,380.819,408.723,367.276,408.723z M367.276,361.599
				c-12.441,0-22.563,10.121-22.563,22.562c0,12.441,10.122,22.563,22.563,22.563c12.441,0,22.563-10.121,22.563-22.563
				C389.838,371.72,379.717,361.599,367.276,361.599z"/>
		</g>
	</g>
</g>
</svg>
