<svg width="620" height="620" viewBox="0 0 620 620" fill="none" xmlns="http://www.w3.org/2000/svg">
<path d="M620 474.176H0V474.486H620V474.176Z" fill="#EBEBEB"/>
<path d="M398.685 491.462H357.616V491.772H398.685V491.462Z" fill="#EBEBEB"/>
<path d="M515.555 488.102H504.779V488.412H515.555V488.102Z" fill="#EBEBEB"/>
<path d="M491.771 482.621H406.311V482.931H491.771V482.621Z" fill="#EBEBEB"/>
<path d="M279.174 489.937H241.602V490.247H279.174V489.937Z" fill="#EBEBEB"/>
<path d="M230.566 489.937H206.733V490.247H230.566V489.937Z" fill="#EBEBEB"/>
<path d="M123.132 484.704H65.0503V485.014H123.132V484.704Z" fill="#EBEBEB"/>
<path d="M293.892 418.872H54.4608C50.5548 418.872 47.3804 415.698 47.3804 411.792V75.2186C47.3804 71.3126 50.5548 68.1382 54.4608 68.1382H293.905C297.811 68.1382 300.985 71.3126 300.985 75.2186V411.792C300.973 415.698 297.798 418.872 293.892 418.872ZM54.4608 68.4482C50.7284 68.4482 47.6904 71.4862 47.6904 75.2186V411.792C47.6904 415.524 50.7284 418.562 54.4608 418.562H293.905C297.637 418.562 300.675 415.524 300.675 411.792V75.2186C300.675 71.4862 297.637 68.4482 293.905 68.4482H54.4608Z" fill="#EBEBEB"/>
<path d="M562.104 418.872H322.66C318.754 418.872 315.58 415.698 315.58 411.792V75.2186C315.58 71.3126 318.754 68.1382 322.66 68.1382H562.104C566.01 68.1382 569.185 71.3126 569.185 75.2186V411.792C569.185 415.698 566.01 418.872 562.104 418.872ZM322.66 68.4482C318.928 68.4482 315.89 71.4862 315.89 75.2186V411.792C315.89 415.524 318.928 418.562 322.66 418.562H562.104C565.837 418.562 568.875 415.524 568.875 411.792V75.2186C568.875 71.4862 565.837 68.4482 562.104 68.4482H322.66Z" fill="#EBEBEB"/>
<path d="M71.1031 291.088H282.263V96.6812L71.1031 96.6812L71.1031 291.088Z" fill="#E6E6E6"/>
<path d="M66.0809 291.088H280.08V96.6812L66.0809 96.6812L66.0809 291.088Z" fill="#F5F5F5"/>
<path d="M271.089 281.367L271.089 106.403L75.0821 106.403L75.0821 281.367H271.089Z" fill="#FAFAFA"/>
<path d="M246.872 281.356L180.953 106.405H153.202L219.121 281.356H246.872Z" fill="white"/>
<path d="M211.247 281.356L145.341 106.405H126.22L192.138 281.356H211.247Z" fill="white"/>
<path d="M152.165 281.363L152.165 106.399H141.426L141.426 281.363H152.165Z" fill="#E6E6E6"/>
<path d="M211.924 281.359L211.924 106.395H201.186L201.186 281.359H211.924Z" fill="#E6E6E6"/>
<path d="M150.24 287.522L150.24 99.166H136.674L136.674 287.522H150.24Z" fill="#F5F5F5"/>
<path d="M210 287.53L210 99.1738H196.434L196.434 287.53H210Z" fill="#F5F5F5"/>
<path d="M76.0396 281.364L76.0396 106.4H75.0847L75.0847 281.364H76.0396Z" fill="#E6E6E6"/>
<path d="M552.891 98.4561H335.656V250.406H552.891V98.4561Z" fill="#EBEBEB"/>
<path d="M552.877 250.401H554.712V98.4513H552.877V250.401Z" fill="#E0E0E0"/>
<path d="M545.28 242.798V106.063L343.271 106.063V242.798L545.28 242.798Z" fill="white"/>
<path d="M344.776 242.794V106.059H343.263V242.794H344.776Z" fill="#E0E0E0"/>
<path d="M521.234 120.813H471.882V190.154H521.234V120.813Z" fill="#F5F5F5"/>
<path d="M408.444 133.66H359.092V203H408.444V133.66Z" fill="#F5F5F5"/>
<path d="M487.084 150.908H437.732V220.249H487.084V150.908Z" fill="#EBEBEB"/>
<path d="M419.405 153.958H400.136V173.228H419.405V153.958Z" fill="#F5F5F5"/>
<path d="M413.813 193.366H394.543V212.635H413.813V193.366Z" fill="#F0F0F0"/>
<path d="M507.284 465.261C507.284 460.338 511.277 456.358 516.187 456.358C521.11 456.358 525.091 460.351 525.091 465.261C525.091 470.184 521.098 474.164 516.187 474.164C511.277 474.177 507.284 470.184 507.284 465.261Z" fill="#E0E0E0"/>
<path d="M522.313 465.261C522.313 460.338 526.306 456.358 531.216 456.358C536.139 456.358 540.119 460.351 540.119 465.261C540.119 470.184 536.127 474.164 531.216 474.164C526.306 474.177 522.313 470.184 522.313 465.261Z" fill="#E0E0E0"/>
<path d="M276.111 465.261C276.111 460.338 280.104 456.358 285.014 456.358C289.937 456.358 293.917 460.351 293.917 465.261C293.917 470.184 289.924 474.164 285.014 474.164C280.104 474.177 276.111 470.184 276.111 465.261Z" fill="#E0E0E0"/>
<path d="M291.152 465.261C291.152 460.338 295.145 456.358 300.055 456.358C304.978 456.358 308.958 460.351 308.958 465.261C308.958 470.184 304.965 474.164 300.055 474.164C295.145 474.177 291.152 470.184 291.152 465.261Z" fill="#E0E0E0"/>
<path d="M522.7 466.494H543.792V276.526H522.7V466.494Z" fill="#EBEBEB"/>
<path d="M522.71 276.521H274.288V466.489H522.71V276.521Z" fill="#F5F5F5"/>
<path d="M514.625 284.32H282.36V458.702H514.625V284.32Z" fill="#EBEBEB"/>
<path d="M511.327 357.654H285.671V455.477H511.327V357.654Z" fill="#F5F5F5"/>
<path d="M511.327 287.991H285.671V355.186H511.327V287.991Z" fill="#F5F5F5"/>
<path d="M326.728 359.315H470.27C471.175 359.315 471.919 358.572 471.919 357.666C471.919 356.761 471.175 356.017 470.27 356.017H326.728C325.823 356.017 325.079 356.761 325.079 357.666C325.079 358.572 325.823 359.315 326.728 359.315Z" fill="#EBEBEB"/>
<path d="M326.728 289.64H470.27C471.175 289.64 471.919 288.896 471.919 287.991C471.919 287.085 471.175 286.341 470.27 286.341H326.728C325.823 286.341 325.079 287.085 325.079 287.991C325.079 288.896 325.823 289.64 326.728 289.64Z" fill="#EBEBEB"/>
<path d="M188.641 377.171H79.2485V474.164H188.641V377.171Z" fill="#F5F5F5"/>
<path d="M188.643 474.18H231.163V377.187H188.643V474.18Z" fill="#EBEBEB"/>
<path d="M191.01 360.158H73.8545V377.171H191.01V360.158Z" fill="#EBEBEB"/>
<path d="M191.003 377.18H236.548V360.167H191.003V377.18Z" fill="#E0E0E0"/>
<path d="M310 530.174C442.782 530.174 550.423 523.89 550.423 516.137C550.423 508.385 442.782 502.101 310 502.101C177.217 502.101 69.5762 508.385 69.5762 516.137C69.5762 523.89 177.217 530.174 310 530.174Z" fill="#F5F5F5"/>
<path d="M506.776 231.744H505.536V246.524H506.776V231.744Z" fill="#9257AD"/>
<path d="M506.776 189.41H505.536V221.402H506.776V189.41Z" fill="#9257AD"/>
<path d="M488.771 341.248H191.456C186.583 341.248 182.59 337.255 182.59 332.382V172.434C182.59 167.561 186.583 163.568 191.456 163.568H488.771C493.644 163.568 497.637 167.561 497.637 172.434V332.37C497.637 337.255 493.644 341.248 488.771 341.248Z" fill="#E0E0E0"/>
<path d="M493.309 336.71H195.982C191.109 336.71 187.116 332.717 187.116 327.844V167.908C187.116 163.035 191.109 159.042 195.982 159.042H493.297C498.17 159.042 502.163 163.035 502.163 167.908V327.844C502.175 332.717 498.182 336.71 493.309 336.71Z" fill="white"/>
<path d="M493.309 337.33H195.982C190.749 337.33 186.496 333.076 186.496 327.844V167.908C186.496 162.676 190.749 158.422 195.982 158.422H493.296C498.529 158.422 502.782 162.676 502.782 167.908V327.844C502.795 333.076 498.529 337.33 493.309 337.33ZM195.982 159.662C191.431 159.662 187.736 163.358 187.736 167.908V327.844C187.736 332.394 191.431 336.09 195.982 336.09H493.296C497.847 336.09 501.542 332.394 501.542 327.844V167.908C501.542 163.358 497.847 159.662 493.296 159.662H195.982Z" fill="#9257AD"/>
<path d="M325.872 236.208H211.296C208.754 236.208 206.67 234.137 206.67 231.582V215.785C206.67 213.243 208.741 211.16 211.296 211.16H325.872C328.414 211.16 330.497 213.23 330.497 215.785V231.582C330.484 234.137 328.414 236.208 325.872 236.208ZM211.283 212.412C209.423 212.412 207.898 213.925 207.898 215.797V231.595C207.898 233.455 209.411 234.98 211.283 234.98H325.859C327.719 234.98 329.244 233.467 329.244 231.595V215.797C329.244 213.937 327.732 212.412 325.859 212.412H211.283Z" fill="#E0E0E0"/>
<path d="M386.235 269.675H211.283C208.741 269.675 206.658 267.604 206.658 265.05V249.252C206.658 246.71 208.729 244.627 211.283 244.627H386.223C388.765 244.627 390.848 246.698 390.848 249.252V265.05C390.848 267.604 388.777 269.675 386.235 269.675ZM211.283 245.879C209.423 245.879 207.898 247.392 207.898 249.265V265.062C207.898 266.922 209.411 268.447 211.283 268.447H386.223C388.083 268.447 389.608 266.935 389.608 265.062V249.265C389.608 247.405 388.095 245.879 386.223 245.879H211.283Z" fill="#E0E0E0"/>
<path d="M212.61 262.136C212.263 262.136 211.99 261.863 211.99 261.516V252.799C211.99 252.452 212.263 252.179 212.61 252.179C212.957 252.179 213.23 252.452 213.23 252.799V261.516C213.23 261.863 212.957 262.136 212.61 262.136Z" fill="#E0E0E0"/>
<path d="M463.227 236.208H348.651C346.109 236.208 344.025 234.137 344.025 231.582V215.785C344.025 213.243 346.096 211.16 348.651 211.16H463.227C465.769 211.16 467.852 213.23 467.852 215.785V231.582C467.839 234.137 465.769 236.208 463.227 236.208ZM348.638 212.412C346.778 212.412 345.253 213.925 345.253 215.797V231.595C345.253 233.455 346.766 234.98 348.638 234.98H463.214C465.074 234.98 466.599 233.467 466.599 231.595V215.797C466.599 213.937 465.087 212.412 463.214 212.412H348.638Z" fill="#E0E0E0"/>
<path opacity="0.2" d="M285.832 189.41H212.387C209.585 189.41 207.291 187.116 207.291 184.314C207.291 181.511 209.585 179.217 212.387 179.217H285.832C288.635 179.217 290.929 181.511 290.929 184.314C290.929 187.116 288.635 189.41 285.832 189.41Z" fill="#9257AD"/>
<path opacity="0.2" d="M306.044 287.717H226.474C225.358 287.717 224.44 286.8 224.44 285.684C224.44 284.568 225.358 283.65 226.474 283.65H306.044C307.16 283.65 308.078 284.568 308.078 285.684C308.066 286.8 307.16 287.717 306.044 287.717Z" fill="#9257AD"/>
<path d="M211.395 289.788C213.662 289.788 215.499 287.95 215.499 285.683C215.499 283.417 213.662 281.579 211.395 281.579C209.128 281.579 207.291 283.417 207.291 285.683C207.291 287.95 209.128 289.788 211.395 289.788Z" fill="#9257AD"/>
<path d="M349.965 228.668C349.618 228.668 349.345 228.395 349.345 228.048V219.331C349.345 218.984 349.618 218.711 349.965 218.711C350.312 218.711 350.585 218.984 350.585 219.331V228.048C350.585 228.395 350.312 228.668 349.965 228.668Z" fill="#E0E0E0"/>
<path d="M212.61 228.668C212.263 228.668 211.99 228.395 211.99 228.048V219.331C211.99 218.984 212.263 218.711 212.61 218.711C212.957 218.711 213.23 218.984 213.23 219.331V228.048C213.23 228.395 212.957 228.668 212.61 228.668Z" fill="#E0E0E0"/>
<path d="M370.809 302.448H413.217C416.937 302.448 419.988 305.499 419.988 309.219V316.882C419.988 320.602 416.937 323.652 413.217 323.652H370.809C367.089 323.652 364.039 320.602 364.039 316.882V309.219C364.039 305.499 367.077 302.448 370.809 302.448Z" fill="#9257AD"/>
<path opacity="0.2" d="M438.514 302.448H480.922C484.642 302.448 487.692 305.499 487.692 309.219V316.882C487.692 320.602 484.642 323.652 480.922 323.652H438.514C434.794 323.652 431.743 320.602 431.743 316.882V309.219C431.743 305.499 434.781 302.448 438.514 302.448Z" fill="#9257AD"/>
<path d="M169.644 108.103C160.48 106.727 158.41 115.047 148.775 114.725C150.288 119.772 155.322 121.917 155.322 121.917C155.322 121.917 147.671 127.472 149.382 135.78C155.384 128.997 163.432 135.433 172.186 135.16C190.377 134.602 196.949 126.17 190.65 118.941C196.502 111.538 180.506 107.558 180.866 102.04C179.031 102.895 179.105 106.417 179.105 106.417C179.105 106.417 172.496 106.975 166.805 102.35C166.544 105.747 169.644 108.103 169.644 108.103Z" fill="#263238"/>
<path d="M187.19 118.593C191.27 119.375 193.923 116.312 193.948 113.782C196.85 119.908 192.373 123.231 187.19 118.593Z" fill="#263238"/>
<path d="M195.796 492.02L187.166 496.992L174.456 477.822L183.086 472.849L195.796 492.02Z" fill="#FF8B7B"/>
<path d="M186.124 496.26L195.821 490.68C196.168 490.482 196.577 490.569 196.8 490.891L201.723 498.232C202.231 498.988 201.921 500.166 201.103 500.625C197.693 502.51 195.969 503.242 191.704 505.697C189.075 507.21 179.614 512.281 172.608 511.736C168.528 511.426 168.441 507.706 170.202 507.296C178.101 505.474 183.619 500.948 184.946 497.637C185.194 497.042 185.615 496.558 186.124 496.26Z" fill="#263238"/>
<path opacity="0.2" d="M183.086 472.849L174.456 477.822L181.015 487.704L189.646 482.732L183.086 472.849Z" fill="black"/>
<path d="M135.147 250.406C135.147 250.406 114.266 332.543 112.083 360.915C109.703 391.989 175.745 486.626 175.745 486.626L191.902 478.181C191.902 478.181 161.324 424.204 140.926 363.171C150.833 331.241 170.562 253.121 170.562 253.121L135.147 250.406Z" fill="#9257AD"/>
<g opacity="0.3">
<path d="M135.147 250.406C135.147 250.406 114.266 332.543 112.083 360.915C109.703 391.989 175.745 486.626 175.745 486.626L191.902 478.181C191.902 478.181 161.324 424.204 140.926 363.171C150.833 331.241 170.562 253.121 170.562 253.121L135.147 250.406Z" fill="white"/>
</g>
<path opacity="0.4" d="M153.66 282.683C145.464 297.03 142.699 331.341 144.807 350.077C150.536 330.125 157.765 302.746 163.109 282.175C159.501 279.397 155.967 278.628 153.66 282.683Z" fill="#9257AD"/>
<path d="M192.473 478.119L175.175 487.184L170.165 481.38L190.662 472.254L192.473 478.119Z" fill="#9257AD"/>
<path d="M183.941 499.509C184.735 499.05 185.528 498.381 186.062 497.872C186.124 497.81 186.148 497.711 186.124 497.624C186.099 497.538 186.012 497.476 185.925 497.476C185.541 497.438 182.131 497.19 181.312 498.207C181.126 498.443 181.077 498.728 181.176 499.038C181.337 499.546 181.635 499.869 182.056 499.98C182.602 500.129 183.272 499.894 183.941 499.509ZM185.342 497.91C183.978 499.1 182.813 499.708 182.18 499.546C181.92 499.472 181.734 499.274 181.622 498.914C181.573 498.753 181.585 498.616 181.684 498.505C182.118 497.959 183.966 497.86 185.342 497.91Z" fill="#9257AD"/>
<path d="M186.024 497.91C186.062 497.897 186.086 497.86 186.099 497.835C186.136 497.773 186.148 497.686 186.111 497.612C186.062 497.5 184.809 494.934 183.458 494.599C183.086 494.512 182.751 494.586 182.441 494.81C182.069 495.082 181.932 495.454 182.069 495.839C182.416 496.893 184.747 497.934 185.9 497.947C185.938 497.947 185.987 497.934 186.024 497.91ZM182.813 495.12C182.974 495.02 183.16 494.996 183.346 495.045C184.152 495.244 185.045 496.608 185.504 497.438C184.388 497.24 182.738 496.384 182.503 495.69C182.453 495.554 182.441 495.38 182.714 495.182C182.751 495.157 182.788 495.144 182.813 495.12Z" fill="#9257AD"/>
<path d="M149.916 179.936L140.938 195.374C139.475 197.941 138.024 200.496 136.66 203.025C135.99 204.278 135.37 205.542 134.788 206.733C134.217 207.886 133.696 209.126 133.486 209.746L133.002 205.158C133.126 205.728 133.2 206.311 133.3 206.844C133.424 207.353 133.486 207.936 133.61 208.407C133.709 208.915 133.82 209.411 133.92 209.895L134.081 210.614C134.106 210.738 134.118 210.85 134.13 210.974C134.118 211.023 134.143 211.098 134.118 211.147C134.068 211.197 134.168 211.271 133.858 211.271C136.04 211.606 137.528 213.652 137.193 215.822C136.858 218.004 134.812 219.492 132.642 219.158C132.122 219.12 132.022 219.133 131.774 219.133L131.154 219.108C130.77 219.071 130.398 219.021 130.038 218.959C129.319 218.823 128.662 218.637 128.005 218.389C126.715 217.905 125.587 217.236 124.545 216.492C123.516 215.723 122.623 214.892 121.817 213.987C121.433 213.54 121.073 213.082 120.689 212.61C120.342 212.152 120.044 211.668 119.722 211.184C119.002 210.106 118.779 208.828 119.027 207.65L119.25 206.596C119.734 204.24 120.317 202.628 120.9 200.979C121.482 199.355 122.14 197.854 122.784 196.354C124.074 193.39 125.45 190.551 126.889 187.761C128.302 184.971 129.803 182.243 131.328 179.54C132.878 176.836 134.428 174.208 136.139 171.529V171.517C138.545 167.772 143.53 166.693 147.274 169.099C150.945 171.442 152.073 176.229 149.916 179.936Z" fill="#FF8B7B"/>
<path d="M144.894 164.969C154.988 164.213 159.948 171.343 155.136 183.098C152.495 189.583 148.341 197.271 145.291 202.641C144.497 204.067 143.753 205.331 143.158 206.348L122.934 190.588C126.864 181.275 138.136 165.478 144.894 164.969Z" fill="#263238"/>
<path opacity="0.3" d="M142.686 176.464C149.382 172.124 140.07 192.498 136.238 200.954L130.299 196.317C131.886 190.29 137.54 179.8 142.686 176.464Z" fill="black"/>
<path d="M170.983 506.094L161.076 505.337L161.361 482.286L171.268 483.042L170.983 506.094Z" fill="#FF8B7B"/>
<path d="M160.642 504.147L171.777 505.003C172.186 505.027 172.471 505.337 172.471 505.734L172.409 514.588C172.397 515.505 171.492 516.311 170.549 516.212C166.68 515.853 164.845 515.481 159.947 515.109C156.934 514.873 144.112 514.216 139.958 513.893C135.891 513.583 136.201 509.467 137.987 509.231C145.997 508.165 155.954 506.602 158.906 504.618C159.414 504.271 160.046 504.097 160.642 504.147Z" fill="#263238"/>
<path opacity="0.2" d="M171.268 483.042L161.361 482.286L161.212 494.165L171.132 494.921L171.268 483.042Z" fill="black"/>
<path d="M154.491 251.881C154.491 251.881 148.403 327.063 148.068 355.558C147.696 386.769 157.157 490.991 157.157 490.991L175.298 492.379C175.298 492.379 173.947 391.307 177.133 360.617C180.605 327.311 188.12 254.461 188.12 254.461L154.491 251.881Z" fill="#9257AD"/>
<path opacity="0.3" d="M154.491 251.881C154.491 251.881 148.403 327.063 148.068 355.558C147.696 386.769 157.157 490.991 157.157 490.991L175.298 492.379C175.298 492.379 173.947 391.307 177.133 360.617C180.605 327.311 188.12 254.461 188.12 254.461L154.491 251.881Z" fill="white"/>
<path d="M176.042 492.429L156.438 490.929L155.818 483.96L177.381 486.688L176.042 492.429Z" fill="#9257AD"/>
<path d="M157.008 505.61C157.926 505.685 158.943 505.573 159.674 505.462C159.761 505.449 159.835 505.387 159.86 505.288C159.885 505.201 159.848 505.102 159.786 505.052C159.488 504.804 156.81 502.672 155.57 503.056C155.285 503.143 155.086 503.354 154.987 503.664C154.838 504.184 154.9 504.606 155.185 504.941C155.545 505.362 156.239 505.548 157.008 505.61ZM159.054 505.065C157.256 505.288 155.954 505.127 155.52 504.631C155.347 504.42 155.309 504.147 155.409 503.788C155.458 503.626 155.545 503.527 155.681 503.478C156.363 503.292 157.963 504.246 159.054 505.065Z" fill="#9257AD"/>
<path d="M159.613 505.449C159.65 505.449 159.687 505.449 159.724 505.437C159.799 505.399 159.848 505.337 159.861 505.263C159.873 505.139 160.295 502.312 159.365 501.27C159.117 500.985 158.794 500.861 158.41 500.873C157.951 500.898 157.641 501.121 157.529 501.506C157.232 502.572 158.559 504.755 159.513 505.412C159.538 505.437 159.575 505.449 159.613 505.449ZM158.534 501.332C158.72 501.345 158.881 501.431 159.017 501.568C159.575 502.188 159.538 503.825 159.451 504.767C158.645 503.973 157.765 502.324 157.963 501.63C158.001 501.493 158.087 501.345 158.422 501.332C158.472 501.332 158.509 501.332 158.534 501.332Z" fill="#9257AD"/>
<path d="M135.147 250.406L188.133 254.448C188.827 249.749 188.79 234.261 190.947 214.706C192.398 201.575 194.841 186.62 199.169 171.864C199.479 170.81 199.801 169.769 200.123 168.727C200.123 168.727 197.47 167.971 193.663 167.115C190.501 166.408 186.521 165.615 182.615 165.131C175.869 164.3 166.098 163.333 160.096 163.407C156.612 163.469 153.189 163.779 150.461 164.102C146.965 164.536 144.894 164.97 144.894 164.97C144.894 164.97 133.325 193.329 135.147 250.406Z" fill="#9257AD"/>
<path d="M137.503 210.143C137.503 210.143 139.562 207.179 141.434 206.286C142.773 205.641 143.79 205.009 144.398 204.587C144.819 204.302 145.377 204.6 145.415 205.108C145.464 205.889 145.055 207.129 143.009 208.828C142.674 211.271 138.88 213.677 138.88 213.677L137.503 210.143Z" fill="#FF8B7B"/>
<path opacity="0.3" d="M145.142 216.678L156.153 217.521L150.176 195.226L139.177 194.382L145.142 216.678Z" fill="black"/>
<path d="M144.385 216.628L155.397 217.459L149.432 195.164L138.421 194.32L144.385 216.628Z" fill="white"/>
<path opacity="0.3" d="M190.948 214.706C192.398 201.574 194.841 186.62 199.169 171.864C195.647 171.281 189.571 171.169 188.182 176.824C186.682 182.887 187.054 197.457 190.948 214.706Z" fill="black"/>
<path d="M203.843 176.464C204.401 178.188 204.835 179.701 205.269 181.313C205.703 182.9 206.075 184.499 206.447 186.099C207.154 189.311 207.799 192.547 208.245 195.858C208.704 199.169 209.064 202.504 209.175 205.951C209.299 209.399 209.213 212.933 208.717 216.64L208.667 217.037C208.456 218.587 207.737 219.951 206.695 220.968C205.84 221.811 205.021 222.357 204.265 222.803C203.533 223.212 202.827 223.535 202.207 223.758C200.942 224.229 199.838 224.489 198.784 224.675C196.713 225.035 194.878 225.134 193.093 225.184C189.546 225.258 186.223 224.961 182.949 224.601C179.688 224.204 176.477 223.683 173.315 223.039C170.14 222.381 167.04 221.675 163.878 220.745C161.745 220.112 160.518 217.868 161.15 215.735C161.659 213.999 163.246 212.858 164.969 212.846H165.044L174.294 212.747C177.369 212.697 180.42 212.635 183.421 212.486C186.409 212.362 189.373 212.114 192.076 211.73C193.415 211.531 194.705 211.271 195.697 210.949C196.18 210.787 196.589 210.614 196.775 210.502C196.887 210.44 196.875 210.403 196.825 210.428C196.726 210.453 196.54 210.552 196.242 210.837L194.221 215.165C194.295 212.623 194.109 209.857 193.824 207.055C193.502 204.24 193.006 201.363 192.485 198.474C191.927 195.585 191.295 192.671 190.6 189.782C190.265 188.331 189.893 186.88 189.534 185.442L188.443 181.226L188.381 180.978C187.265 176.675 189.844 172.273 194.147 171.145C198.301 170.053 202.541 172.434 203.843 176.464Z" fill="#FF8B7B"/>
<path d="M200.123 168.727C190.427 165.689 184.623 171.889 186.248 184.524C187.128 191.493 189.596 199.875 191.431 205.803L212.796 199.231C210.936 189.249 206.609 170.76 200.123 168.727Z" fill="#263238"/>
<path d="M161.175 163.407C167.834 162.353 169.26 158.397 169.124 153.909C169.099 152.817 169 151.677 168.826 150.548L177.494 144.361L183.867 139.822C181.697 146.952 178.907 160.034 183.483 165.255C183.483 165.255 174.604 171.802 163.804 176.018C162.093 176.687 160.121 175.795 159.588 174.046C157.517 167.325 161.175 163.407 161.175 163.407Z" fill="#FF8B7B"/>
<path opacity="0.2" d="M168.826 150.548C168.987 151.677 169.098 152.818 169.123 153.909C172.223 153.524 177.035 151.156 177.717 147.734C177.952 146.568 177.518 145.179 177.493 144.361L168.826 150.548Z" fill="black"/>
<path d="M184.376 125.141C184.847 135.023 185.616 140.777 181.238 146.481C174.666 155.062 162.155 152.21 158.77 142.736C155.719 134.217 155.471 119.474 164.573 114.278C173.55 109.145 183.904 115.258 184.376 125.141Z" fill="#FF8B7B"/>
<path d="M180.234 119.139C177.444 124.186 179.564 127.893 179.564 127.893L180.085 125.513C180.085 125.513 183.606 129.257 182.602 133.548C188.74 130.262 189.434 117.49 180.234 119.139Z" fill="#263238"/>
<path d="M185.38 120.652C174.22 123.107 167.933 121.979 165.949 121.545C170.624 121.235 171.852 119.114 171.852 119.114C171.852 119.114 160.716 121.842 158.422 120.974C160.667 114.167 165.9 111.042 176.452 111.451C187.004 111.873 185.38 120.652 185.38 120.652Z" fill="#263238"/>
<path d="M189.125 134.342C187.996 136.784 186.012 138.57 184.152 139.413C181.35 140.678 179.949 138.124 180.742 135.086C181.449 132.358 183.768 128.414 186.583 128.427C189.348 128.452 190.414 131.552 189.125 134.342Z" fill="#FF8B7B"/>
<path d="M169.905 129.89C169.992 130.684 169.644 131.39 169.124 131.465C168.603 131.539 168.119 130.944 168.032 130.15C167.946 129.357 168.293 128.65 168.814 128.576C169.322 128.501 169.818 129.096 169.905 129.89Z" fill="#263238"/>
<path d="M160.939 131.118C161.026 131.911 160.679 132.618 160.158 132.692C159.637 132.767 159.154 132.172 159.067 131.378C158.98 130.584 159.327 129.878 159.848 129.803C160.369 129.729 160.853 130.312 160.939 131.118Z" fill="#263238"/>
<path d="M163.829 131.13C163.829 131.13 162.527 135.978 160.778 138.471C162.328 139.599 164.647 138.669 164.647 138.669L163.829 131.13Z" fill="#FF5652"/>
<path d="M168.119 140.38C171.169 139.587 172.36 137.243 172.422 137.131C172.484 137.02 172.434 136.871 172.31 136.821C172.198 136.759 172.05 136.809 172 136.921C171.988 136.945 170.624 139.624 167.139 140.095C167.015 140.107 166.916 140.231 166.941 140.355C166.953 140.479 167.077 140.579 167.201 140.554C167.536 140.517 167.834 140.455 168.119 140.38Z" fill="#263238"/>
<path d="M172.36 126.604C172.434 126.579 172.509 126.542 172.558 126.492C172.744 126.319 172.744 126.009 172.57 125.823C170.785 123.963 168.652 124.384 168.553 124.397C168.305 124.421 168.131 124.694 168.193 124.955C168.243 125.215 168.503 125.376 168.751 125.314C168.838 125.302 170.487 125.004 171.888 126.467C172.025 126.604 172.198 126.641 172.36 126.604Z" fill="#263238"/>
<path d="M156.748 128.538C156.897 128.501 157.021 128.39 157.071 128.241C157.777 126.22 159.464 125.761 159.476 125.748C159.724 125.686 159.873 125.426 159.811 125.178C159.749 124.93 159.489 124.781 159.241 124.843C159.154 124.868 157.058 125.451 156.19 127.931C156.103 128.179 156.227 128.452 156.475 128.538C156.575 128.563 156.661 128.563 156.748 128.538Z" fill="#263238"/>
<path d="M167.152 213.739L156.984 207.452L157.914 219.951C157.914 219.951 166.433 223.002 167.598 218.488L167.152 213.739Z" fill="#FF8B7B"/>
<path d="M160.208 209.448C160.208 209.448 158.1 206.497 156.203 205.604C154.851 204.972 153.574 203.831 152.966 203.422C152.545 203.137 151.987 203.434 151.962 203.943C151.925 204.724 152.619 206.472 154.69 208.159C155.062 210.602 158.906 212.995 158.906 212.995L160.208 209.448Z" fill="#FF8B7B"/>
<path d="M148.18 208.506L149.085 216.33C149.159 217 149.643 217.57 150.288 217.756L157.914 219.951L156.971 207.551L150.04 206.658C148.973 206.534 148.056 207.44 148.18 208.506Z" fill="#FF8B7B"/>
<path d="M132.63 212.127L141.446 207.663L141.223 218.674C141.223 218.674 132.084 221.402 131.526 216.752L132.63 212.127Z" fill="#FF8B7B"/>
<path d="M145.303 208.085V216.789C145.303 217.285 144.98 217.707 144.497 217.831L141.223 218.687L141.446 207.675L143.951 207.031C144.633 206.845 145.303 207.378 145.303 208.085Z" fill="#FF8B7B"/>
<path d="M413.118 360.728C421.439 369.011 420.236 377.418 414.309 383.383C408.382 389.335 399.974 390.575 391.654 382.292C383.334 374.008 378.25 359.327 384.177 353.375C390.104 347.423 404.798 352.445 413.118 360.728Z" fill="#9257AD"/>
<path d="M442.568 415.077C432.289 416.888 426.089 412.027 423.931 405.058C421.774 398.089 424.477 391.654 434.769 389.831C445.048 388.021 459.023 391.505 461.181 398.486C463.338 405.455 452.86 413.267 442.568 415.077Z" fill="#9257AD"/>
<path d="M388.281 431.359C395.696 433.814 400.805 430.875 403.149 425.952C405.492 421.029 404.19 415.97 396.775 413.527C389.36 411.072 378.646 412.163 376.303 417.086C373.959 421.997 380.866 428.903 388.281 431.359Z" fill="#9257AD"/>
<path d="M448.322 360.245C441.204 369.991 432.413 370.797 425.357 366.581C418.314 362.365 415.685 354.739 422.803 344.993C429.92 335.246 444.106 327.075 451.149 331.278C458.205 335.507 455.452 350.498 448.322 360.245Z" fill="#9257AD"/>
<path d="M406.832 488.076C406.175 488.076 405.629 487.568 405.592 486.898C401.773 413.416 429.611 356.339 429.896 355.768C430.206 355.148 430.95 354.9 431.557 355.21C432.177 355.52 432.425 356.252 432.115 356.872C431.843 357.43 404.29 413.961 408.072 486.762C408.109 487.444 407.576 488.027 406.894 488.064C406.869 488.076 406.857 488.076 406.832 488.076Z" fill="#263238"/>
<path d="M417.123 396.353C417.086 396.353 417.049 396.353 416.999 396.353C416.317 396.291 415.821 395.684 415.883 395.002C415.896 394.841 417.26 378.832 406.298 373.587C405.678 373.289 405.418 372.545 405.715 371.938C406.013 371.318 406.757 371.057 407.365 371.355C419.913 377.357 418.425 394.518 418.351 395.25C418.301 395.882 417.756 396.353 417.123 396.353Z" fill="#263238"/>
<path d="M408.133 443.523C407.489 443.523 406.955 443.027 406.893 442.382C406.881 442.234 405.467 426.994 392.1 422.753C391.443 422.542 391.083 421.848 391.294 421.203C391.505 420.546 392.199 420.186 392.857 420.397C407.823 425.146 409.361 442.01 409.373 442.184C409.423 442.866 408.927 443.461 408.233 443.523C408.208 443.511 408.171 443.523 408.133 443.523Z" fill="#263238"/>
<path d="M410.812 424.551C410.713 424.551 410.613 424.538 410.514 424.514C409.845 424.352 409.448 423.683 409.609 423.013C415.412 399.466 433.727 400.024 433.913 400.024C434.595 400.061 435.128 400.631 435.091 401.313C435.066 401.995 434.483 402.541 433.801 402.491C433.132 402.466 417.322 402.082 412.015 423.596C411.878 424.179 411.37 424.551 410.812 424.551Z" fill="#263238"/>
<path d="M458.366 477.276C458.366 492.491 451.397 506.118 440.46 515.17C439.679 515.815 438.761 516.138 437.844 516.138H379.006C378.088 516.138 377.171 515.815 376.389 515.17C365.44 506.118 358.484 492.503 358.484 477.276C358.484 472.452 359.178 467.778 360.493 463.388C360.493 463.376 360.505 463.363 360.505 463.351C361.249 460.858 363.109 459.259 365.13 459.259H451.744C453.765 459.259 455.625 460.858 456.369 463.351C456.369 463.363 456.382 463.376 456.382 463.388C457.671 467.778 458.366 472.452 458.366 477.276Z" fill="#9257AD"/>
<path d="M458.217 480.884C429.759 490.135 401.673 501.034 374.418 513.447C374.753 513.757 375.112 514.054 375.46 514.352C402.355 502.125 430.032 491.375 458.106 482.236C458.155 481.789 458.192 481.343 458.217 480.884Z" fill="white"/>
<path d="M440.386 459.246H438.241C415.325 475.453 393.043 492.937 371.318 510.309C371.591 510.619 371.876 510.917 372.161 511.215C394.283 493.52 417.024 475.701 440.386 459.246Z" fill="white"/>
<path d="M426.436 516.125C436.728 507.693 446.822 498.963 456.667 490.023C456.866 489.304 457.039 488.585 457.2 487.853C446.574 497.562 435.637 507.011 424.489 516.113H426.436V516.125Z" fill="white"/>
<path d="M426.498 459.246C403.099 466.922 381.151 479.049 360.691 491.846C360.815 492.255 360.952 492.664 361.088 493.061C382.639 479.57 405.84 466.81 430.615 459.246H426.498Z" fill="white"/>
<path d="M359.228 468.844C365.837 465.359 372.583 462.16 379.465 459.246H376.365C370.661 461.738 365.031 464.417 359.513 467.306C359.402 467.814 359.315 468.335 359.228 468.844Z" fill="white"/>
<path d="M390.03 459.246H388.207L359.265 486.005C359.352 486.489 359.451 486.96 359.55 487.431L390.03 459.246Z" fill="white"/>
</svg>
