<?xml version="1.0" encoding="utf-8"?>
<!-- Generator: Adobe Illustrator 25.3.1, SVG Export Plug-In . SVG Version: 6.00 Build 0)  -->
<svg version="1.1" id="Layer_1" xmlns="http://www.w3.org/2000/svg" xmlns:xlink="http://www.w3.org/1999/xlink" x="0px" y="0px"
	 viewBox="0 0 1446.45 390.86" style="enable-background:new 0 0 1446.45 390.86;" xml:space="preserve">
<style type="text/css">
	.recomm-wheels{
       
    animation: wheel_animation 0.75s infinite;
    transform-origin: center;
    transform-box: fill-box;
}
.wheel:hover{
    animation: wheel_stop 0.3s ;
}
@keyframes wheel_animation{
    from{
        rotate:0deg;
        transform:translateY(0px);
    }
    to{
        rotate:360deg;
        transform:translateY(1px);
    }
}
@keyframes wheel_stop{
    from{
        rotate:0deg;
    }
    to{
        rotate:10deg;
    }
}
  
</style>
<g class="recomm-wheel">
	<linearGradient id="SVGID_1_" gradientUnits="userSpaceOnUse" x1="49.4497" y1="67.7854" x2="307.5341" y2="317.9809">
		<stop  offset="3.726880e-03" style="stop-color:#FFC611"/>
		<stop  offset="0.1639" style="stop-color:#EA8928"/>
		<stop  offset="0.4699" style="stop-color:#DC442E"/>
		<stop  offset="0.6148" style="stop-color:#C62A5A"/>
		<stop  offset="0.8343" style="stop-color:#774291"/>
		<stop  offset="1" style="stop-color:#4C3C91"/>
	</linearGradient>
	<path class="recomm-wheels" style="fill:url(#SVGID_1_);" d="M342.87,262.7c-0.04-0.41-0.09-0.83-0.14-1.25c-0.32-2.52-0.91-5.05-1.76-7.56
		c-0.16-0.47-0.33-0.94-0.51-1.4s-0.36-0.92-0.57-1.37c-0.19-0.45-0.4-0.91-0.61-1.34c-0.21-0.44-0.44-0.88-0.66-1.31
		c-0.23-0.44-0.47-0.86-0.71-1.28c-0.17-0.28-0.34-0.57-0.52-0.84c-0.17-0.28-0.36-0.56-0.53-0.83c-0.4-0.62-0.82-1.23-1.28-1.82
		c-0.18-0.24-0.36-0.49-0.55-0.72c-0.21-0.28-0.43-0.54-0.65-0.8c-0.2-0.24-0.4-0.48-0.61-0.71c-0.06-0.07-0.13-0.15-0.19-0.22
		c-0.08-0.09-0.15-0.17-0.23-0.25c-0.01-0.01-0.03-0.03-0.04-0.04c-2.7-3.04-5.93-5.66-9.6-7.71c-4.1-2.29-6.42-6.83-6.42-11.52
		v-57.72c0-4.3,1.97-8.48,5.45-10.89c0.32-0.23,0.65-0.44,0.99-0.63c10.06-5.63,16.93-15.55,18.79-26.73
		c0.06-0.36,0.11-0.72,0.16-1.08v-0.01c0.12-0.89,0.21-1.79,0.27-2.69c0.02-0.36,0.04-0.72,0.05-1.08c0.02-0.4,0.02-0.81,0.02-1.22
		c0-0.78-0.02-1.57-0.07-2.35c-0.02-0.26-0.04-0.52-0.06-0.78c-0.02-0.26-0.05-0.52-0.07-0.78c-0.03-0.26-0.06-0.52-0.09-0.78
		c-0.03-0.25-0.07-0.51-0.11-0.77c-0.04-0.28-0.09-0.57-0.14-0.85c-0.01-0.06-0.02-0.13-0.03-0.19c0-0.02,0-0.03-0.01-0.05
		c-0.04-0.21-0.08-0.41-0.12-0.62c-0.1-0.53-0.21-1.05-0.34-1.57c-0.08-0.36-0.18-0.72-0.27-1.08c-0.11-0.4-0.22-0.8-0.34-1.2
		c-0.37-1.22-0.81-2.42-1.31-3.59c-0.32-0.78-0.68-1.54-1.06-2.3c-0.16-0.32-0.32-0.64-0.49-0.95c-0.24-0.44-0.49-0.88-0.74-1.32
		c-0.16-0.28-0.33-0.55-0.5-0.82c-0.19-0.3-0.38-0.6-0.58-0.89c-0.16-0.26-0.33-0.51-0.51-0.75c-0.06-0.1-0.14-0.2-0.21-0.3
		c-0.17-0.23-0.34-0.47-0.52-0.7c-0.2-0.28-0.41-0.54-0.62-0.81c-0.22-0.28-0.44-0.55-0.67-0.82c-0.64-0.77-1.31-1.5-2.02-2.22
		c-0.19-0.19-0.37-0.38-0.57-0.57c-0.91-0.89-1.87-1.73-2.87-2.52c-0.29-0.23-0.59-0.46-0.89-0.68c-0.06-0.05-0.11-0.09-0.17-0.13
		c-0.21-0.16-0.43-0.32-0.65-0.46c-0.29-0.21-0.59-0.41-0.89-0.61c-0.28-0.19-0.56-0.36-0.85-0.54c-0.32-0.2-0.64-0.4-0.96-0.57
		c-0.21-0.13-0.42-0.25-0.63-0.36c-0.24-0.14-0.49-0.28-0.74-0.4c-0.14-0.08-0.28-0.15-0.42-0.22c-0.32-0.17-0.66-0.33-0.99-0.49
		c-0.04-0.02-0.08-0.05-0.12-0.06c-0.4-0.19-0.8-0.38-1.21-0.55c-0.02-0.01-0.03-0.02-0.06-0.02c-0.43-0.19-0.87-0.36-1.31-0.53
		c-0.44-0.17-0.9-0.33-1.35-0.49c-0.32-0.11-0.64-0.22-0.96-0.31c-0.17-0.06-0.35-0.11-0.52-0.16c-0.43-0.13-0.87-0.25-1.31-0.36
		c-9.98-2.56-20.06-0.88-28.31,3.91c-3.71,2.15-8.2,2.42-12.09,0.74c-0.24-0.11-0.49-0.21-0.72-0.33c-0.27-0.13-0.53-0.27-0.79-0.42
		l-49.83-28.77c-0.26-0.15-0.52-0.31-0.77-0.48c-0.25-0.17-0.49-0.34-0.73-0.53c-3.23-2.45-5.33-6.22-5.27-10.3
		c0.11-7.09-1.8-13.94-5.31-19.84c-0.23-0.38-0.46-0.76-0.7-1.13c-0.23-0.36-0.46-0.71-0.71-1.06c-0.19-0.29-0.4-0.57-0.61-0.86
		c-0.07-0.1-0.15-0.19-0.21-0.28c-0.19-0.26-0.39-0.51-0.59-0.76c-0.36-0.44-0.73-0.89-1.11-1.32c-0.2-0.23-0.4-0.45-0.6-0.66
		c-0.23-0.24-0.44-0.48-0.67-0.71c-0.19-0.19-0.38-0.39-0.57-0.57l-0.61-0.58c-0.7-0.66-1.42-1.3-2.17-1.9
		c-0.19-0.15-0.39-0.31-0.57-0.45c-0.44-0.35-0.89-0.68-1.34-1c-0.06-0.05-0.14-0.11-0.21-0.15c-1.17-0.82-2.39-1.59-3.65-2.27
		c-0.26-0.15-0.52-0.29-0.78-0.42c-0.53-0.28-1.06-0.53-1.6-0.78c-0.26-0.11-0.52-0.23-0.78-0.35c-0.02-0.01-0.04-0.02-0.06-0.02
		c-0.27-0.11-0.53-0.23-0.8-0.33c-0.57-0.24-1.16-0.46-1.75-0.67c-0.78-0.27-1.57-0.52-2.37-0.74c-0.61-0.17-1.21-0.32-1.83-0.46
		c-0.07-0.02-0.15-0.03-0.23-0.05c-0.21-0.05-0.43-0.09-0.65-0.14c-0.43-0.09-0.87-0.16-1.3-0.23c-0.23-0.04-0.45-0.07-0.69-0.11
		c-0.32-0.05-0.64-0.09-0.95-0.13c-0.03,0-0.06,0-0.1-0.01c-0.46-0.05-0.91-0.1-1.37-0.13c-0.34-0.03-0.69-0.05-1.03-0.06
		c-1.16-0.06-2.35-0.06-3.53,0c-0.34,0.02-0.69,0.03-1.03,0.06c-0.46,0.03-0.91,0.08-1.37,0.13c-0.03,0-0.06,0-0.1,0.01
		c-0.32,0.04-0.64,0.08-0.95,0.13c-0.23,0.03-0.46,0.06-0.69,0.11c-0.44,0.07-0.87,0.15-1.3,0.23c-0.22,0.05-0.44,0.09-0.65,0.14
		c-0.08,0.02-0.15,0.03-0.23,0.05c-0.61,0.14-1.22,0.29-1.83,0.46c-0.8,0.23-1.59,0.48-2.37,0.74c-0.59,0.21-1.17,0.43-1.75,0.67
		c-0.27,0.11-0.53,0.22-0.8,0.33c-0.02,0.01-0.04,0.02-0.06,0.02c-0.26,0.11-0.52,0.23-0.78,0.35c-0.54,0.25-1.08,0.51-1.6,0.78
		c-0.27,0.13-0.53,0.27-0.78,0.42c-1.25,0.69-2.47,1.45-3.65,2.27c-0.07,0.04-0.15,0.1-0.21,0.15c-0.45,0.32-0.9,0.66-1.34,1
		c-0.19,0.15-0.38,0.3-0.57,0.45c-0.74,0.6-1.47,1.24-2.17,1.9l-0.61,0.58c-0.19,0.19-0.38,0.38-0.57,0.57
		c-0.23,0.23-0.45,0.47-0.68,0.71c-0.2,0.22-0.4,0.44-0.6,0.66c-0.38,0.43-0.74,0.87-1.11,1.32c-0.2,0.25-0.4,0.5-0.59,0.76
		c-0.07,0.09-0.15,0.19-0.21,0.28c-0.21,0.28-0.42,0.57-0.61,0.86c-0.24,0.35-0.48,0.7-0.71,1.06c-0.24,0.37-0.48,0.75-0.7,1.13
		c-3.5,5.9-5.41,12.75-5.31,19.84c0.06,4.08-2.05,7.85-5.27,10.3c-0.23,0.19-0.48,0.36-0.73,0.53s-0.51,0.32-0.77,0.48l-49.9,28.81
		c-0.24,0.14-0.49,0.27-0.73,0.38c-0.23,0.12-0.48,0.23-0.72,0.33c-3.89,1.67-8.38,1.41-12.09-0.74c-8.26-4.8-18.33-6.48-28.31-3.91
		c-0.44,0.11-0.88,0.23-1.31,0.36c-0.17,0.05-0.35,0.1-0.52,0.16c-0.32,0.09-0.65,0.19-0.96,0.31c-0.45,0.15-0.91,0.32-1.35,0.49
		c-0.44,0.17-0.88,0.35-1.31,0.53c-0.02,0.01-0.04,0.02-0.06,0.02c-0.41,0.17-0.82,0.36-1.21,0.55c-0.04,0.01-0.08,0.03-0.12,0.06
		c-0.33,0.15-0.66,0.32-0.99,0.49c-0.15,0.06-0.28,0.14-0.42,0.22c-0.25,0.12-0.49,0.26-0.74,0.4c-0.21,0.11-0.42,0.23-0.63,0.36
		c-0.32,0.18-0.65,0.37-0.96,0.57c-0.29,0.18-0.57,0.36-0.85,0.54c-0.3,0.2-0.6,0.4-0.89,0.61c-0.22,0.15-0.44,0.3-0.65,0.46
		c-0.06,0.04-0.11,0.08-0.17,0.13c-0.3,0.22-0.6,0.45-0.89,0.68c-1,0.79-1.97,1.63-2.87,2.52c-0.19,0.18-0.37,0.36-0.56,0.57
		c-0.72,0.71-1.39,1.45-2.03,2.22c-0.23,0.27-0.45,0.54-0.67,0.82c-0.21,0.27-0.42,0.53-0.62,0.81c-0.18,0.23-0.35,0.47-0.52,0.7
		c-0.07,0.1-0.15,0.2-0.21,0.3c-0.18,0.24-0.35,0.49-0.51,0.75c-0.2,0.29-0.4,0.59-0.58,0.89c-0.17,0.27-0.34,0.55-0.5,0.82
		c-0.26,0.44-0.5,0.87-0.74,1.32c-0.18,0.32-0.34,0.63-0.5,0.95c-0.38,0.75-0.74,1.52-1.06,2.3c-0.5,1.17-0.94,2.37-1.31,3.59
		c-0.12,0.4-0.23,0.8-0.34,1.2c-0.1,0.36-0.19,0.72-0.27,1.08c-0.13,0.52-0.24,1.04-0.34,1.57c-0.04,0.21-0.08,0.41-0.12,0.62
		c-0.01,0.02-0.01,0.03-0.01,0.05c-0.02,0.06-0.02,0.12-0.03,0.19c-0.05,0.28-0.1,0.57-0.14,0.85c-0.03,0.26-0.07,0.52-0.11,0.77
		c-0.03,0.26-0.06,0.52-0.09,0.78c-0.02,0.26-0.05,0.52-0.07,0.78c-0.02,0.26-0.04,0.52-0.06,0.78c-0.05,0.78-0.07,1.57-0.07,2.35
		c0,0.41,0.01,0.82,0.02,1.22c0.01,0.36,0.02,0.72,0.05,1.08c0.06,0.91,0.15,1.8,0.27,2.69v0.01c0.05,0.36,0.11,0.73,0.16,1.08
		c1.86,11.18,8.73,21.1,18.79,26.73c0.35,0.19,0.68,0.4,0.99,0.63c3.49,2.42,5.45,6.59,5.45,10.89v57.72
		c0,4.69-2.32,9.24-6.42,11.52c-3.67,2.05-6.9,4.67-9.6,7.71c-0.01,0.01-0.03,0.03-0.04,0.04c-0.07,0.08-0.15,0.16-0.23,0.25
		c-0.06,0.07-0.12,0.15-0.19,0.22c-0.2,0.23-0.4,0.47-0.61,0.71c-0.22,0.26-0.44,0.53-0.65,0.8c-0.19,0.23-0.37,0.48-0.55,0.72
		c-0.06,0.07-0.11,0.14-0.16,0.21c-0.09,0.13-0.19,0.25-0.27,0.39c-0.3,0.4-0.57,0.81-0.84,1.22c-0.18,0.28-0.36,0.55-0.53,0.83
		c-0.18,0.27-0.35,0.56-0.52,0.84c-0.24,0.42-0.48,0.84-0.71,1.28c-0.23,0.43-0.45,0.87-0.66,1.31c-0.22,0.44-0.42,0.89-0.61,1.34
		c-0.2,0.44-0.39,0.91-0.57,1.37c-0.18,0.46-0.35,0.93-0.51,1.4c-0.86,2.52-1.44,5.05-1.76,7.56c-0.05,0.42-0.1,0.84-0.14,1.25
		c-0.04,0.42-0.07,0.83-0.1,1.25c-0.06,1.04-0.09,2.08-0.06,3.11c0.02,0.83,0.07,1.67,0.15,2.51c0.34,3.64,1.22,7.32,2.69,10.93
		c6.47,15.88,23.53,25.49,40.47,22.94c4.89-0.74,9.35-2.36,13.29-4.66c0.53-0.31,1.08-0.58,1.63-0.81l0.01-0.01
		c2.24-1.02,4.72-1.29,7.14-0.91c0.23,0.03,0.45,0.07,0.68,0.12c0.87,0.17,1.72,0.44,2.56,0.78c0.28,0.11,0.56,0.24,0.83,0.38
		c0.25,0.12,0.49,0.25,0.74,0.39l49.91,28.81c0.57,0.32,1.11,0.7,1.62,1.1c0.2,0.15,0.4,0.32,0.58,0.49
		c0.19,0.16,0.38,0.34,0.56,0.52c2.52,2.43,4.03,5.77,4,9.32v0.43c0,0.37,0.01,0.74,0.02,1.11c0,0.11,0,0.22,0.01,0.33
		c0.01,0.3,0.02,0.61,0.04,0.91c0.02,0.25,0.04,0.5,0.06,0.75c0.03,0.37,0.06,0.75,0.11,1.13c0.03,0.28,0.06,0.57,0.11,0.85
		c0,0.03,0.01,0.06,0.02,0.11c0.02,0.15,0.04,0.3,0.06,0.45c0.03,0.23,0.07,0.46,0.11,0.7c0.02,0.13,0.04,0.25,0.06,0.38
		c0.03,0.19,0.06,0.37,0.11,0.55c0.02,0.12,0.05,0.24,0.07,0.36c0,0.01,0,0.01,0,0.02c0.08,0.36,0.16,0.73,0.25,1.09
		c0.09,0.38,0.19,0.76,0.29,1.14c0.05,0.2,0.11,0.4,0.17,0.59c0.07,0.28,0.15,0.55,0.24,0.82c0.08,0.26,0.16,0.51,0.25,0.77
		c0.14,0.41,0.29,0.82,0.44,1.24c0.07,0.19,0.15,0.39,0.23,0.58c0.1,0.24,0.19,0.49,0.3,0.74c0.35,0.83,0.73,1.66,1.14,2.47
		c0.13,0.26,0.27,0.51,0.4,0.76c0.06,0.11,0.12,0.23,0.19,0.35c0.18,0.32,0.36,0.65,0.55,0.96c0.21,0.36,0.42,0.7,0.65,1.05
		c0.37,0.61,0.78,1.2,1.2,1.78c0.06,0.09,0.12,0.18,0.19,0.26c0.44,0.62,0.91,1.22,1.41,1.81c0.16,0.19,0.32,0.38,0.48,0.57
		c0.14,0.16,0.27,0.32,0.42,0.48c0.11,0.13,0.23,0.26,0.35,0.39c0.2,0.23,0.4,0.44,0.61,0.66c0.19,0.19,0.38,0.39,0.57,0.57
		c0.19,0.19,0.38,0.37,0.57,0.56c0.21,0.2,0.42,0.4,0.64,0.6c0.26,0.23,0.53,0.46,0.79,0.7c0.24,0.21,0.49,0.41,0.74,0.61
		s0.5,0.4,0.75,0.59c3.28,2.53,6.96,4.5,10.86,5.86c0.31,0.11,0.62,0.21,0.94,0.31c0.72,0.23,1.45,0.44,2.19,0.62
		c0.18,0.05,0.36,0.1,0.53,0.13c0.41,0.11,0.82,0.19,1.25,0.28c0.29,0.06,0.58,0.11,0.87,0.17c0.29,0.05,0.58,0.1,0.88,0.15
		c0.58,0.09,1.18,0.17,1.77,0.23c0.42,0.05,0.85,0.08,1.28,0.11c0.43,0.03,0.86,0.05,1.29,0.06c0.4,0.02,0.8,0.02,1.2,0.02
		c0.02,0,0.05-0.01,0.08,0c0.4,0,0.81-0.01,1.21-0.02c0.43-0.02,0.86-0.03,1.29-0.06c0.43-0.03,0.86-0.06,1.28-0.11
		c0.59-0.06,1.19-0.14,1.77-0.23c0.3-0.05,0.59-0.1,0.88-0.15c0.29-0.06,0.58-0.11,0.87-0.17c0.42-0.09,0.83-0.18,1.25-0.28
		c0.18-0.03,0.36-0.08,0.53-0.13c0.74-0.19,1.47-0.39,2.19-0.62c0.32-0.1,0.63-0.2,0.94-0.31c3.91-1.36,7.59-3.33,10.86-5.86
		c0.25-0.19,0.5-0.39,0.75-0.59s0.49-0.4,0.74-0.61c0.27-0.23,0.53-0.46,0.79-0.7c0.22-0.2,0.43-0.4,0.64-0.6
		c0.19-0.19,0.39-0.37,0.57-0.56c0.19-0.19,0.39-0.38,0.57-0.57c0.21-0.22,0.41-0.44,0.61-0.66c0.12-0.13,0.23-0.26,0.35-0.39
		c0.15-0.15,0.28-0.32,0.42-0.48c0.66-0.77,1.29-1.56,1.88-2.38c0.06-0.08,0.13-0.17,0.19-0.26c0.46-0.64,0.9-1.29,1.32-1.96
		c0.15-0.25,0.31-0.49,0.45-0.74c0.21-0.36,0.42-0.73,0.62-1.09c0.1-0.18,0.19-0.35,0.28-0.53c0.53-0.99,1.01-2.01,1.45-3.05
		c0.11-0.24,0.2-0.49,0.31-0.74c0.07-0.19,0.15-0.39,0.22-0.58c0.15-0.41,0.31-0.82,0.44-1.24c0.09-0.25,0.17-0.51,0.25-0.77
		c0.08-0.24,0.15-0.49,0.23-0.74c0.06-0.23,0.13-0.45,0.19-0.68c0.11-0.41,0.23-0.82,0.32-1.25c0.05-0.19,0.09-0.36,0.13-0.55
		c0.03-0.15,0.06-0.31,0.1-0.45c0.02-0.12,0.05-0.24,0.07-0.36c0.04-0.18,0.07-0.36,0.11-0.55c0.02-0.13,0.05-0.25,0.06-0.38
		c0.04-0.23,0.08-0.46,0.11-0.7c0.02-0.15,0.05-0.3,0.06-0.45c0.01-0.04,0.02-0.07,0.02-0.11c0.04-0.28,0.07-0.57,0.11-0.85
		c0.05-0.38,0.08-0.76,0.11-1.13c0.02-0.25,0.04-0.5,0.06-0.75c0.01-0.06,0.01-0.13,0.01-0.19c0.01-0.11,0.02-0.21,0.02-0.32
		c0.02-0.14,0.02-0.27,0.02-0.4c0.01-0.11,0.01-0.22,0.01-0.33c0.02-0.36,0.02-0.74,0.02-1.11v-0.43c-0.03-3.31,1.28-6.42,3.48-8.79
		c0.16-0.19,0.34-0.36,0.53-0.54c0.36-0.35,0.74-0.68,1.14-0.99c0.5-0.41,1.04-0.78,1.61-1.1l49.91-28.81
		c0.24-0.14,0.49-0.27,0.74-0.39c0.27-0.14,0.55-0.27,0.83-0.38c0.83-0.35,1.69-0.61,2.56-0.78c0.23-0.05,0.45-0.09,0.68-0.12
		c2.42-0.38,4.9-0.11,7.14,0.91c0,0,0,0,0.01,0.01c0.56,0.23,1.1,0.5,1.63,0.81c3.94,2.3,8.39,3.92,13.29,4.66
		c16.94,2.56,34-7.06,40.47-22.94c1.47-3.61,2.35-7.28,2.69-10.92c0.07-0.84,0.12-1.67,0.15-2.52c0.02-1.04,0-2.08-0.06-3.11
		C342.94,263.53,342.91,263.12,342.87,262.7z M89.36,119.6c0-0.15,0-0.3,0.02-0.44c-0.01-0.19,0-0.38,0.02-0.57
		c0.14-3.26,1.59-6.28,3.89-8.55c0.18-0.19,0.37-0.37,0.57-0.54c0.68-0.61,1.42-1.15,2.23-1.62l49.93-28.82
		c0.53-0.3,1.06-0.57,1.6-0.79c0.27-0.11,0.55-0.22,0.83-0.31c0.82-0.27,1.67-0.48,2.53-0.58c0.57-0.08,1.14-0.11,1.71-0.11
		c0.91-0.01,1.81,0.08,2.7,0.26c1.46,0.29,2.87,0.82,4.19,1.58c1.29,0.75,2.64,1.42,4.01,2.02c0.46,0.19,0.93,0.39,1.4,0.57
		c0.06,0.02,0.14,0.06,0.21,0.08c0.35,0.13,0.7,0.26,1.06,0.38c0.39,0.14,0.78,0.27,1.17,0.38c0.33,0.11,0.67,0.2,1.01,0.3
		c0.35,0.1,0.7,0.19,1.04,0.28c0.26,0.06,0.52,0.12,0.78,0.18c0.53,0.12,1.05,0.23,1.58,0.32c0.29,0.06,0.59,0.11,0.88,0.15
		c0.04,0.01,0.08,0.02,0.12,0.02c0.36,0.06,0.72,0.11,1.08,0.15c0.02,0,0.04,0.01,0.06,0.01c0.36,0.04,0.73,0.08,1.09,0.11
		c0.02,0,0.03,0.01,0.05,0c0.33,0.03,0.66,0.06,0.99,0.08c0.36,0.02,0.73,0.04,1.09,0.05c0.39,0.02,0.78,0.02,1.16,0.02h0.23
		c0.39,0,0.78-0.01,1.16-0.02c0.36-0.01,0.73-0.02,1.09-0.05c0.32-0.02,0.66-0.05,0.99-0.08h0.05c0.36-0.03,0.73-0.07,1.09-0.11
		c0.02-0.01,0.04-0.01,0.06-0.01c0.36-0.05,0.71-0.1,1.08-0.15c0.04,0,0.08-0.01,0.12-0.02c0.29-0.05,0.59-0.1,0.88-0.15
		c0.53-0.09,1.05-0.19,1.58-0.32c0.26-0.06,0.52-0.11,0.78-0.18c0.04-0.01,0.09-0.02,0.13-0.03c0.31-0.07,0.61-0.15,0.91-0.24
		c0.34-0.1,0.68-0.19,1.01-0.3c0.4-0.11,0.78-0.24,1.17-0.38c0.36-0.12,0.71-0.25,1.06-0.38c0.07-0.02,0.15-0.05,0.21-0.08
		c0.47-0.18,0.94-0.37,1.4-0.57c1.37-0.6,2.72-1.27,4.01-2.02c1.32-0.76,2.73-1.29,4.19-1.58c0.89-0.18,1.8-0.27,2.7-0.26
		c0.57,0,1.14,0.03,1.71,0.11c0.86,0.11,1.71,0.3,2.53,0.58c0.28,0.09,0.56,0.19,0.83,0.31c0.55,0.23,1.08,0.49,1.61,0.79
		l49.89,28.81c0.82,0.47,1.57,1.02,2.26,1.63c0.2,0.17,0.4,0.36,0.57,0.54c2.3,2.26,3.75,5.29,3.89,8.55
		c0.02,0.19,0.02,0.38,0.02,0.57c0.02,0.15,0.02,0.29,0.02,0.44v0.15c0,0.11,0,0.22-0.01,0.33c-0.1,4.71-2.63,9.04-6.73,11.41
		l-49.92,28.82c-4.16,2.4-9.3,2.44-13.45,0.02c-0.02-0.02-0.06-0.03-0.08-0.04c-0.25-0.15-0.49-0.28-0.74-0.42
		c-0.42-0.23-0.85-0.45-1.27-0.67c-0.35-0.18-0.7-0.35-1.05-0.51c-0.19-0.09-0.37-0.17-0.56-0.25c-0.14-0.07-0.27-0.13-0.41-0.18
		c-0.26-0.12-0.52-0.23-0.78-0.33c-0.47-0.19-0.94-0.36-1.42-0.54c-2.45-0.87-5.03-1.5-7.73-1.87c-0.48-0.06-0.95-0.12-1.44-0.17
		c-0.41-0.04-0.83-0.08-1.25-0.1c-0.05-0.01-0.1-0.02-0.15-0.02c-0.06-0.01-0.11-0.01-0.16-0.01c-0.36-0.02-0.73-0.04-1.1-0.05
		c-0.29-0.01-0.58-0.02-0.87-0.02c-0.29,0-0.58,0.01-0.87,0.02c-0.37,0.01-0.74,0.02-1.11,0.05c-0.08,0-0.16,0.01-0.24,0.02
		c-0.95,0.06-1.89,0.15-2.81,0.28c-2.68,0.36-5.24,0.99-7.67,1.86c-0.48,0.18-0.95,0.36-1.42,0.54c-0.27,0.11-0.53,0.21-0.78,0.33
		c-0.14,0.06-0.27,0.11-0.41,0.18c-0.19,0.08-0.37,0.16-0.56,0.25c-0.35,0.16-0.7,0.33-1.05,0.51c-0.42,0.22-0.85,0.44-1.27,0.67
		c-0.28,0.15-0.55,0.3-0.82,0.46c-4.15,2.43-9.28,2.39-13.45-0.02L96.1,131.48c-4.1-2.37-6.63-6.7-6.73-11.41
		c-0.01-0.11-0.01-0.22-0.01-0.33V119.6z M70.48,233.44c-4.21-2.42-6.83-6.87-6.83-11.72v-57.73c0-4.4,2.14-8.5,5.69-10.99
		c0.42-0.22,0.84-0.45,1.25-0.7c4.18-2.44,9.33-2.45,13.53-0.03l49.91,28.82c4,2.3,6.49,6.47,6.71,11.05c0.01,0.01,0,0.02,0,0.02
		c0.02,0.23,0.02,0.45,0.02,0.68V193c0,0.25-0.01,0.49-0.02,0.74c-0.22,4.55-2.74,8.68-6.71,10.97l-49.99,28.86
		c-3.86,2.23-8.54,2.43-12.51,0.51C71.2,233.86,70.84,233.65,70.48,233.44z M267.6,266.26c0.01,3.16-1.1,6.16-3.05,8.53
		c-0.27,0.34-0.57,0.66-0.88,0.98c-0.41,0.42-0.86,0.81-1.33,1.17s-0.97,0.7-1.49,0.99c0,0.01-0.01,0.01-0.01,0.01l-49.88,28.8
		c-0.52,0.3-1.06,0.57-1.6,0.79c-3.82,1.59-8.2,1.42-11.8-0.7c-4.25-2.49-8.97-4.16-13.89-4.85c-0.09-0.02-0.18-0.03-0.27-0.04
		c-0.34-0.04-0.68-0.08-1.02-0.11c-0.1-0.02-0.19-0.03-0.29-0.03c-0.32-0.03-0.66-0.06-0.99-0.08c-0.14-0.02-0.27-0.02-0.42-0.02
		c-0.29-0.02-0.58-0.04-0.88-0.05c-0.87-0.03-1.75-0.03-2.62,0c-0.3,0.01-0.59,0.02-0.88,0.05c-0.15,0-0.28,0.01-0.42,0.02
		c-0.33,0.02-0.66,0.05-0.99,0.08c-0.1,0.01-0.19,0.02-0.29,0.03c-0.34,0.03-0.68,0.07-1.02,0.11c-0.09,0.02-0.18,0.03-0.27,0.04
		c-4.93,0.7-9.65,2.36-13.89,4.85c-3.6,2.12-7.98,2.3-11.8,0.7c-0.53-0.22-1.06-0.49-1.57-0.78l-49.92-28.82
		c-0.52-0.3-1.02-0.63-1.49-0.99c-0.47-0.36-0.91-0.75-1.33-1.17c-0.32-0.32-0.61-0.64-0.88-0.98c-1.95-2.37-3.06-5.37-3.05-8.53
		v-0.18c0-0.11,0-0.21,0.01-0.32c0.1-4.73,2.61-9.07,6.73-11.46l49.92-28.81c3.81-2.21,8.52-2.56,12.41-0.61
		c0.01,0,0.02,0.01,0.04,0.02c0.24,0.12,0.49,0.25,0.73,0.4c0.27,0.16,0.55,0.32,0.82,0.48c0.27,0.15,0.55,0.31,0.83,0.45
		c0.28,0.15,0.56,0.3,0.85,0.44c0.23,0.12,0.46,0.23,0.7,0.35c0.11,0.05,0.23,0.11,0.34,0.15c0.23,0.11,0.45,0.21,0.68,0.31
		c0.29,0.13,0.58,0.25,0.88,0.37c0.6,0.24,1.2,0.48,1.82,0.69c0.35,0.12,0.7,0.23,1.04,0.35c0.56,0.18,1.12,0.34,1.67,0.49
		c0.31,0.08,0.61,0.16,0.93,0.23c0.28,0.07,0.57,0.14,0.85,0.2c0.97,0.21,1.96,0.38,2.94,0.51c0.76,0.11,1.53,0.18,2.3,0.23
		c0.03,0,0.06,0.01,0.09,0c0.35,0.02,0.69,0.05,1.03,0.06c0.99,0.05,1.98,0.05,2.98,0c0.34-0.01,0.68-0.03,1.03-0.06
		c0.03,0.01,0.06,0.01,0.09,0c0.77-0.06,1.54-0.13,2.3-0.23c0.99-0.13,1.97-0.3,2.94-0.51c0.28-0.06,0.57-0.13,0.85-0.2
		c0.32-0.07,0.62-0.15,0.93-0.23c0.56-0.15,1.12-0.31,1.67-0.49c0.35-0.11,0.7-0.23,1.04-0.35c0.61-0.21,1.22-0.44,1.82-0.69
		c0.3-0.12,0.59-0.24,0.88-0.37c0.23-0.1,0.45-0.2,0.68-0.31c0.11-0.05,0.23-0.11,0.34-0.15c0.24-0.11,0.48-0.23,0.7-0.35
		c0.29-0.14,0.57-0.28,0.85-0.44c0.28-0.15,0.56-0.3,0.83-0.45c0.27-0.15,0.55-0.32,0.82-0.48c0.24-0.15,0.49-0.28,0.73-0.4
		c0.02,0,0.03-0.01,0.04-0.02c3.9-1.95,8.6-1.59,12.41,0.61l49.92,28.81c4.12,2.39,6.63,6.73,6.73,11.46
		c0.01,0.11,0.01,0.21,0.01,0.32V266.26z M272.91,233.57l-49.99-28.86c-3.97-2.3-6.49-6.43-6.71-10.97
		c-0.02-0.24-0.02-0.49-0.02-0.74v-0.17c0-0.23,0.01-0.45,0.02-0.68c0-0.01,0-0.01,0-0.02c0.22-4.58,2.72-8.74,6.71-11.05
		l49.91-28.82c4.19-2.42,9.35-2.41,13.53,0.03c0.41,0.24,0.83,0.48,1.25,0.7c3.55,2.49,5.69,6.59,5.69,10.99v57.73
		c0,4.85-2.61,9.3-6.83,11.72c-0.36,0.21-0.72,0.42-1.07,0.64C281.46,236,276.77,235.8,272.91,233.57z"/>
</g>
<g>
	<g>
		<g>
			<path style="fill:#0B061E;" d="M417.85,232.74V77.8h126.93c5.17,0,9.91,1.29,14.22,3.88c4.31,2.59,7.72,6,10.24,10.24
				c2.51,4.24,3.77,8.87,3.77,13.9v43.53c0,5.17-1.26,9.88-3.77,14.12c-2.52,4.24-5.93,7.62-10.24,10.13
				c-4.31,2.52-9.05,3.77-14.22,3.77l-103.66,0.22v55.17H417.85z M446.51,153.87h97.84c1.43,0,2.66-0.5,3.66-1.51
				c1-1,1.51-2.23,1.51-3.66v-42.24c0-1.43-0.51-2.69-1.51-3.77c-1.01-1.08-2.23-1.62-3.66-1.62h-97.84c-1.44,0-2.69,0.54-3.77,1.62
				c-1.08,1.08-1.62,2.34-1.62,3.77v42.24c0,1.44,0.54,2.66,1.62,3.66C443.81,153.37,445.07,153.87,446.51,153.87z M544.99,232.74
				l-48.49-57.97h30.39l45.26,53.66v4.31H544.99z"/>
			<path style="fill:#0B061E;" d="M608.68,228.87c-4.24-2.59-7.65-6-10.24-10.24c-2.59-4.24-3.88-8.87-3.88-13.9v-68.96
				c0-5.03,1.29-9.66,3.88-13.9c2.59-4.24,6-7.65,10.24-10.24c4.24-2.59,8.87-3.88,13.9-3.88h71.12c5.17,0,9.88,1.29,14.12,3.88
				c4.24,2.59,7.61,6,10.13,10.24c2.51,4.24,3.77,8.87,3.77,13.9v46.12H617.83v22.2c0,1.44,0.54,2.69,1.62,3.77
				c1.08,1.08,2.33,1.62,3.77,1.62h98.49v23.27h-99.13C617.54,232.74,612.91,231.45,608.68,228.87z M617.83,160.12h80.38v-23.71
				c0-1.43-0.51-2.69-1.51-3.77c-1.01-1.08-2.23-1.62-3.66-1.62h-69.82c-1.44,0-2.69,0.54-3.77,1.62c-1.08,1.08-1.62,2.34-1.62,3.77
				V160.12z"/>
			<path style="fill:#0B061E;" d="M757.8,228.87c-4.24-2.59-7.65-6-10.24-10.24c-2.59-4.24-3.88-8.87-3.88-13.9v-68.96
				c0-5.03,1.29-9.66,3.88-13.9c2.59-4.24,6-7.65,10.24-10.24c4.24-2.59,8.87-3.88,13.9-3.88h98.7v23.27h-98.06
				c-1.44,0-2.69,0.54-3.77,1.62c-1.08,1.08-1.62,2.34-1.62,3.77v67.67c0,1.44,0.54,2.69,1.62,3.77c1.08,1.08,2.33,1.62,3.77,1.62
				h98.49v23.27H771.7C766.67,232.74,762.04,231.45,757.8,228.87z"/>
			<path style="fill:#0B061E;" d="M907.58,228.87c-4.24-2.59-7.65-6-10.24-10.24c-2.59-4.24-3.88-8.87-3.88-13.9v-68.96
				c0-5.03,1.29-9.66,3.88-13.9c2.59-4.24,6-7.65,10.24-10.24c4.24-2.59,8.87-3.88,13.9-3.88h71.12c5.17,0,9.88,1.29,14.12,3.88
				c4.24,2.59,7.61,6,10.13,10.24c2.51,4.24,3.77,8.87,3.77,13.9v68.96c0,5.03-1.26,9.66-3.77,13.9
				c-2.51,4.24-5.89,7.65-10.13,10.24c-4.24,2.59-8.94,3.88-14.12,3.88h-71.12C916.45,232.74,911.81,231.45,907.58,228.87z
				 M922.12,209.47h69.82c1.43,0,2.66-0.54,3.66-1.62c1-1.08,1.51-2.33,1.51-3.77v-67.67c0-1.43-0.5-2.69-1.51-3.77
				c-1.01-1.08-2.23-1.62-3.66-1.62h-69.82c-1.44,0-2.69,0.54-3.77,1.62c-1.08,1.08-1.62,2.34-1.62,3.77v67.67
				c0,1.44,0.54,2.69,1.62,3.77C919.43,208.93,920.69,209.47,922.12,209.47z"/>
			<path style="fill:#0B061E;" d="M1043.23,232.74V107.75h159.69c5.17,0,9.88,1.29,14.12,3.88c4.24,2.59,7.61,6,10.13,10.24
				c2.51,4.24,3.77,8.87,3.77,13.9v96.98h-23.06v-96.33c0-1.43-0.54-2.69-1.62-3.77c-1.08-1.08-2.34-1.62-3.77-1.62h-48.06
				c-1.44,0-2.69,0.54-3.77,1.62c-1.08,1.08-1.62,2.34-1.62,3.77v96.33h-23.49v-96.33c0-1.43-0.54-2.69-1.62-3.77
				c-1.08-1.08-2.34-1.62-3.77-1.62h-48.27c-1.44,0-2.66,0.54-3.66,1.62c-1.01,1.08-1.51,2.34-1.51,3.77v96.33H1043.23z"/>
			<path style="fill:#0B061E;" d="M1254,232.74V107.75h159.69c5.17,0,9.88,1.29,14.12,3.88c4.24,2.59,7.61,6,10.13,10.24
				c2.51,4.24,3.77,8.87,3.77,13.9v96.98h-23.06v-96.33c0-1.43-0.54-2.69-1.62-3.77c-1.08-1.08-2.34-1.62-3.77-1.62h-48.06
				c-1.44,0-2.69,0.54-3.77,1.62c-1.08,1.08-1.62,2.34-1.62,3.77v96.33h-23.49v-96.33c0-1.43-0.54-2.69-1.62-3.77
				c-1.08-1.08-2.34-1.62-3.77-1.62h-48.27c-1.44,0-2.66,0.54-3.66,1.62c-1.01,1.08-1.51,2.34-1.51,3.77v96.33H1254z"/>
		</g>
	</g>
</g>
<g>
	<g>
		<g>
			<path style="fill:#494949;" d="M420.04,307.75v-33.25h27.24c1.11,0,2.13,0.28,3.05,0.83c0.92,0.56,1.66,1.29,2.2,2.2
				c0.54,0.91,0.81,1.9,0.81,2.98v9.34c0,1.11-0.27,2.12-0.81,3.03c-0.54,0.91-1.27,1.63-2.2,2.17c-0.92,0.54-1.94,0.81-3.05,0.81
				l-22.25,0.05v11.84H420.04z M426.19,290.82h21c0.31,0,0.57-0.11,0.79-0.32c0.22-0.22,0.32-0.48,0.32-0.79v-9.06
				c0-0.31-0.11-0.58-0.32-0.81c-0.22-0.23-0.48-0.35-0.79-0.35h-21c-0.31,0-0.58,0.12-0.81,0.35c-0.23,0.23-0.35,0.5-0.35,0.81
				v9.06c0,0.31,0.12,0.57,0.35,0.79C425.62,290.71,425.89,290.82,426.19,290.82z M447.33,307.75l-10.41-12.44h6.52l9.71,11.52v0.92
				H447.33z"/>
			<path style="fill:#494949;" d="M464.42,306.91c-0.91-0.56-1.64-1.29-2.2-2.2c-0.55-0.91-0.83-1.9-0.83-2.98v-14.8
				c0-1.08,0.28-2.07,0.83-2.98c0.56-0.91,1.29-1.64,2.2-2.2c0.91-0.56,1.9-0.83,2.98-0.83h15.26c1.11,0,2.12,0.28,3.03,0.83
				c0.91,0.56,1.63,1.29,2.17,2.2c0.54,0.91,0.81,1.9,0.81,2.98v9.9h-22.29v4.76c0,0.31,0.12,0.58,0.35,0.81
				c0.23,0.23,0.5,0.35,0.81,0.35h21.14v4.99H467.4C466.32,307.75,465.33,307.47,464.42,306.91z M466.38,292.16h17.25v-5.09
				c0-0.31-0.11-0.58-0.32-0.81c-0.22-0.23-0.48-0.35-0.79-0.35h-14.98c-0.31,0-0.58,0.12-0.81,0.35c-0.23,0.23-0.35,0.5-0.35,0.81
				V292.16z"/>
			<path style="fill:#494949;" d="M510.23,307.75l-14.8-26.82h5.78l11.52,21.18l11.52-21.18h5.78l-14.8,26.82H510.23z"/>
			<path style="fill:#494949;" d="M539.8,306.91c-0.91-0.56-1.64-1.29-2.2-2.2c-0.55-0.91-0.83-1.9-0.83-2.98v-14.8
				c0-1.08,0.28-2.07,0.83-2.98c0.56-0.91,1.29-1.64,2.2-2.2c0.91-0.56,1.9-0.83,2.98-0.83h15.26c1.11,0,2.12,0.28,3.03,0.83
				c0.91,0.56,1.63,1.29,2.17,2.2c0.54,0.91,0.81,1.9,0.81,2.98v14.8c0,1.08-0.27,2.07-0.81,2.98c-0.54,0.91-1.26,1.64-2.17,2.2
				c-0.91,0.56-1.92,0.83-3.03,0.83h-15.26C541.71,307.75,540.71,307.47,539.8,306.91z M542.92,302.75h14.98
				c0.31,0,0.57-0.12,0.79-0.35c0.22-0.23,0.32-0.5,0.32-0.81v-14.52c0-0.31-0.11-0.58-0.32-0.81c-0.22-0.23-0.48-0.35-0.79-0.35
				h-14.98c-0.31,0-0.58,0.12-0.81,0.35c-0.23,0.23-0.35,0.5-0.35,0.81v14.52c0,0.31,0.12,0.58,0.35,0.81
				C542.35,302.64,542.62,302.75,542.92,302.75z"/>
			<path style="fill:#494949;" d="M575.27,306.91c-0.91-0.56-1.64-1.29-2.2-2.2c-0.55-0.91-0.83-1.9-0.83-2.98v-29.6h5v29.46
				c0,0.31,0.12,0.58,0.35,0.81c0.23,0.23,0.5,0.35,0.81,0.35h4.86v4.99h-4.99C577.18,307.75,576.18,307.47,575.27,306.91z"/>
			<path style="fill:#494949;" d="M593.26,306.91c-0.91-0.56-1.63-1.29-2.17-2.2c-0.54-0.91-0.81-1.9-0.81-2.98v-20.81h4.99v20.67
				c0,0.31,0.12,0.58,0.35,0.81c0.23,0.23,0.5,0.35,0.81,0.35h14.98c0.31,0,0.58-0.12,0.81-0.35c0.23-0.23,0.35-0.5,0.35-0.81
				v-20.67h4.99v20.81c0,1.08-0.27,2.07-0.81,2.98c-0.54,0.91-1.26,1.64-2.17,2.2c-0.91,0.56-1.92,0.83-3.03,0.83h-15.26
				C595.18,307.75,594.17,307.47,593.26,306.91z"/>
			<path style="fill:#494949;" d="M628.83,306.91c-0.91-0.56-1.63-1.29-2.17-2.2c-0.54-0.91-0.81-1.9-0.81-2.98v-29.28h4.99v8.46
				h11.01v4.99h-11.01v15.68c0,0.31,0.12,0.58,0.35,0.81c0.23,0.23,0.5,0.35,0.81,0.35h9.85v4.99h-9.99
				C630.75,307.75,629.74,307.47,628.83,306.91z"/>
			<path style="fill:#494949;" d="M648.88,277.13v-4.99h5v4.99H648.88z M648.88,307.75v-26.82h5v26.82H648.88z"/>
			<path style="fill:#494949;" d="M665.27,306.91c-0.91-0.56-1.64-1.29-2.2-2.2c-0.55-0.91-0.83-1.9-0.83-2.98v-14.8
				c0-1.08,0.28-2.07,0.83-2.98c0.56-0.91,1.29-1.64,2.2-2.2c0.91-0.56,1.9-0.83,2.98-0.83h15.26c1.11,0,2.12,0.28,3.03,0.83
				c0.91,0.56,1.63,1.29,2.17,2.2c0.54,0.91,0.81,1.9,0.81,2.98v14.8c0,1.08-0.27,2.07-0.81,2.98c-0.54,0.91-1.26,1.64-2.17,2.2
				c-0.91,0.56-1.92,0.83-3.03,0.83h-15.26C667.18,307.75,666.18,307.47,665.27,306.91z M668.39,302.75h14.98
				c0.31,0,0.57-0.12,0.79-0.35c0.22-0.23,0.32-0.5,0.32-0.81v-14.52c0-0.31-0.11-0.58-0.32-0.81c-0.22-0.23-0.48-0.35-0.79-0.35
				h-14.98c-0.31,0-0.58,0.12-0.81,0.35c-0.23,0.23-0.35,0.5-0.35,0.81v14.52c0,0.31,0.12,0.58,0.35,0.81
				C667.82,302.64,668.09,302.75,668.39,302.75z"/>
			<path style="fill:#494949;" d="M697.81,307.75v-26.82h21.27c1.11,0,2.12,0.28,3.03,0.83c0.91,0.56,1.63,1.29,2.17,2.2
				c0.54,0.91,0.81,1.9,0.81,2.98v20.81h-5v-20.67c0-0.31-0.12-0.58-0.35-0.81c-0.23-0.23-0.5-0.35-0.81-0.35h-14.98
				c-0.31,0-0.58,0.12-0.81,0.35c-0.23,0.23-0.35,0.5-0.35,0.81v20.67H697.81z"/>
			<path style="fill:#494949;" d="M739.34,307.75c-1.11,0-2.12-0.28-3.03-0.83c-0.91-0.56-1.63-1.29-2.17-2.2
				c-0.54-0.91-0.81-1.9-0.81-2.98v-9.9h22.25v-4.76c0-0.31-0.11-0.58-0.32-0.81c-0.22-0.23-0.48-0.35-0.79-0.35h-21.14v-4.99h21.27
				c1.11,0,2.12,0.28,3.03,0.83c0.91,0.56,1.63,1.29,2.17,2.2c0.54,0.91,0.81,1.9,0.81,2.98v20.81H739.34z M739.48,302.75h16.09
				v-6.24h-17.25v5.09c0,0.31,0.12,0.58,0.35,0.81C738.9,302.64,739.17,302.75,739.48,302.75z"/>
			<path style="fill:#494949;" d="M768.84,277.13v-4.99h5v4.99H768.84z M768.84,307.75v-26.82h5v26.82H768.84z"/>
			<path style="fill:#494949;" d="M782.35,307.75v-5.92l20.63-15.91h-20.63v-4.99h27.29v5.92l-20.63,15.91h20.63v4.99H782.35z"/>
			<path style="fill:#494949;" d="M820.94,306.91c-0.91-0.56-1.64-1.29-2.2-2.2c-0.55-0.91-0.83-1.9-0.83-2.98v-14.8
				c0-1.08,0.28-2.07,0.83-2.98c0.56-0.91,1.29-1.64,2.2-2.2c0.91-0.56,1.9-0.83,2.98-0.83h15.26c1.11,0,2.12,0.28,3.03,0.83
				c0.91,0.56,1.63,1.29,2.17,2.2c0.54,0.91,0.81,1.9,0.81,2.98v9.9h-22.29v4.76c0,0.31,0.12,0.58,0.35,0.81
				c0.23,0.23,0.5,0.35,0.81,0.35h21.14v4.99h-21.27C822.85,307.75,821.85,307.47,820.94,306.91z M822.91,292.16h17.25v-5.09
				c0-0.31-0.11-0.58-0.32-0.81c-0.22-0.23-0.48-0.35-0.79-0.35h-14.98c-0.31,0-0.58,0.12-0.81,0.35c-0.23,0.23-0.35,0.5-0.35,0.81
				V292.16z"/>
			<path style="fill:#494949;" d="M873.25,306.91c-0.91-0.56-1.63-1.29-2.17-2.2c-0.54-0.91-0.81-1.9-0.81-2.98v-29.28h4.99v8.46
				h11.01v4.99h-11.01v15.68c0,0.31,0.12,0.58,0.35,0.81c0.23,0.23,0.5,0.35,0.81,0.35h9.85v4.99h-9.99
				C875.17,307.75,874.16,307.47,873.25,306.91z"/>
			<path style="fill:#494949;" d="M893.39,307.75v-35.61h4.99v8.79h16.28c1.08,0,2.07,0.28,2.98,0.83c0.91,0.56,1.64,1.29,2.2,2.2
				c0.56,0.91,0.83,1.9,0.83,2.98v20.81h-5v-20.67c0-0.31-0.12-0.58-0.35-0.81c-0.23-0.23-0.5-0.35-0.81-0.35h-14.98
				c-0.31,0-0.58,0.12-0.81,0.35c-0.23,0.23-0.35,0.5-0.35,0.81v20.67H893.39z"/>
			<path style="fill:#494949;" d="M930.6,306.91c-0.91-0.56-1.64-1.29-2.2-2.2c-0.55-0.91-0.83-1.9-0.83-2.98v-14.8
				c0-1.08,0.28-2.07,0.83-2.98c0.56-0.91,1.29-1.64,2.2-2.2c0.91-0.56,1.9-0.83,2.98-0.83h15.26c1.11,0,2.12,0.28,3.03,0.83
				c0.91,0.56,1.63,1.29,2.17,2.2c0.54,0.91,0.81,1.9,0.81,2.98v9.9h-22.29v4.76c0,0.31,0.12,0.58,0.35,0.81
				c0.23,0.23,0.5,0.35,0.81,0.35h21.14v4.99h-21.27C932.5,307.75,931.51,307.47,930.6,306.91z M932.56,292.16h17.25v-5.09
				c0-0.31-0.11-0.58-0.32-0.81c-0.22-0.23-0.48-0.35-0.79-0.35h-14.98c-0.31,0-0.58,0.12-0.81,0.35c-0.23,0.23-0.35,0.5-0.35,0.81
				V292.16z"/>
			<path style="fill:#494949;" d="M963.13,307.75v-26.82h21.27c1.11,0,2.12,0.28,3.03,0.83c0.91,0.56,1.63,1.29,2.17,2.2
				c0.54,0.91,0.81,1.9,0.81,2.98v20.81h-5v-20.67c0-0.31-0.12-0.58-0.35-0.81c-0.23-0.23-0.5-0.35-0.81-0.35h-14.98
				c-0.31,0-0.58,0.12-0.81,0.35c-0.23,0.23-0.35,0.5-0.35,0.81v20.67H963.13z"/>
			<path style="fill:#494949;" d="M1018.47,306.91c-0.91-0.56-1.64-1.29-2.2-2.2c-0.56-0.91-0.83-1.9-0.83-2.98v-14.8
				c0-1.08,0.28-2.07,0.83-2.98c0.55-0.91,1.29-1.64,2.2-2.2s1.9-0.83,2.98-0.83h21.18v4.99h-21.04c-0.31,0-0.58,0.12-0.81,0.35
				c-0.23,0.23-0.35,0.5-0.35,0.81v14.52c0,0.31,0.12,0.58,0.35,0.81c0.23,0.23,0.5,0.35,0.81,0.35h21.14v4.99h-21.27
				C1020.37,307.75,1019.38,307.47,1018.47,306.91z"/>
			<path style="fill:#494949;" d="M1054.03,306.91c-0.91-0.56-1.64-1.29-2.2-2.2c-0.56-0.91-0.83-1.9-0.83-2.98v-14.8
				c0-1.08,0.28-2.07,0.83-2.98c0.55-0.91,1.29-1.64,2.2-2.2s1.9-0.83,2.98-0.83h15.26c1.11,0,2.12,0.28,3.03,0.83
				s1.63,1.29,2.17,2.2c0.54,0.91,0.81,1.9,0.81,2.98v14.8c0,1.08-0.27,2.07-0.81,2.98c-0.54,0.91-1.26,1.64-2.17,2.2
				s-1.92,0.83-3.03,0.83h-15.26C1055.94,307.75,1054.94,307.47,1054.03,306.91z M1057.16,302.75h14.98c0.31,0,0.57-0.12,0.79-0.35
				c0.22-0.23,0.32-0.5,0.32-0.81v-14.52c0-0.31-0.11-0.58-0.32-0.81c-0.22-0.23-0.48-0.35-0.79-0.35h-14.98
				c-0.31,0-0.58,0.12-0.81,0.35c-0.23,0.23-0.35,0.5-0.35,0.81v14.52c0,0.31,0.12,0.58,0.35,0.81
				C1056.58,302.64,1056.85,302.75,1057.16,302.75z"/>
			<path style="fill:#494949;" d="M1086.57,307.75v-26.82h34.27c1.11,0,2.12,0.28,3.03,0.83c0.91,0.56,1.63,1.29,2.17,2.2
				c0.54,0.91,0.81,1.9,0.81,2.98v20.81h-4.95v-20.67c0-0.31-0.12-0.58-0.35-0.81c-0.23-0.23-0.5-0.35-0.81-0.35h-10.31
				c-0.31,0-0.58,0.12-0.81,0.35c-0.23,0.23-0.35,0.5-0.35,0.81v20.67h-5.04v-20.67c0-0.31-0.12-0.58-0.35-0.81
				c-0.23-0.23-0.5-0.35-0.81-0.35h-10.36c-0.31,0-0.57,0.12-0.79,0.35c-0.22,0.23-0.32,0.5-0.32,0.81v20.67H1086.57z"/>
			<path style="fill:#494949;" d="M1135.22,307.75v-26.82h34.27c1.11,0,2.12,0.28,3.03,0.83c0.91,0.56,1.63,1.29,2.17,2.2
				c0.54,0.91,0.81,1.9,0.81,2.98v20.81h-4.95v-20.67c0-0.31-0.12-0.58-0.35-0.81c-0.23-0.23-0.5-0.35-0.81-0.35h-10.31
				c-0.31,0-0.58,0.12-0.81,0.35c-0.23,0.23-0.35,0.5-0.35,0.81v20.67h-5.04v-20.67c0-0.31-0.12-0.58-0.35-0.81
				c-0.23-0.23-0.5-0.35-0.81-0.35h-10.36c-0.31,0-0.57,0.12-0.79,0.35c-0.22,0.23-0.32,0.5-0.32,0.81v20.67H1135.22z"/>
			<path style="fill:#494949;" d="M1186.81,306.91c-0.91-0.56-1.63-1.29-2.17-2.2c-0.54-0.91-0.81-1.9-0.81-2.98v-20.81h5v20.67
				c0,0.31,0.12,0.58,0.35,0.81c0.23,0.23,0.5,0.35,0.81,0.35h14.98c0.31,0,0.58-0.12,0.81-0.35c0.23-0.23,0.35-0.5,0.35-0.81
				v-20.67h5v20.81c0,1.08-0.27,2.07-0.81,2.98c-0.54,0.91-1.26,1.64-2.17,2.2c-0.91,0.56-1.92,0.83-3.03,0.83h-15.26
				C1188.73,307.75,1187.72,307.47,1186.81,306.91z"/>
			<path style="fill:#494949;" d="M1219.44,307.75v-26.82h21.27c1.11,0,2.12,0.28,3.03,0.83s1.63,1.29,2.17,2.2
				c0.54,0.91,0.81,1.9,0.81,2.98v20.81h-5v-20.67c0-0.31-0.12-0.58-0.35-0.81c-0.23-0.23-0.5-0.35-0.81-0.35h-14.98
				c-0.31,0-0.58,0.12-0.81,0.35c-0.23,0.23-0.35,0.5-0.35,0.81v20.67H1219.44z"/>
			<path style="fill:#494949;" d="M1254.96,277.13v-4.99h4.99v4.99H1254.96z M1254.96,307.75v-26.82h4.99v26.82H1254.96z"/>
			<path style="fill:#494949;" d="M1271.35,306.91c-0.91-0.56-1.64-1.29-2.2-2.2c-0.56-0.91-0.83-1.9-0.83-2.98v-14.8
				c0-1.08,0.28-2.07,0.83-2.98c0.55-0.91,1.29-1.64,2.2-2.2s1.9-0.83,2.98-0.83h21.18v4.99h-21.04c-0.31,0-0.58,0.12-0.81,0.35
				c-0.23,0.23-0.35,0.5-0.35,0.81v14.52c0,0.31,0.12,0.58,0.35,0.81c0.23,0.23,0.5,0.35,0.81,0.35h21.14v4.99h-21.27
				C1273.26,307.75,1272.26,307.47,1271.35,306.91z"/>
			<path style="fill:#494949;" d="M1309.95,307.75c-1.11,0-2.12-0.28-3.03-0.83s-1.63-1.29-2.17-2.2c-0.54-0.91-0.81-1.9-0.81-2.98
				v-9.9h22.25v-4.76c0-0.31-0.11-0.58-0.32-0.81c-0.22-0.23-0.48-0.35-0.79-0.35h-21.14v-4.99h21.27c1.11,0,2.12,0.28,3.03,0.83
				c0.91,0.56,1.63,1.29,2.17,2.2c0.54,0.91,0.81,1.9,0.81,2.98v20.81H1309.95z M1310.09,302.75h16.09v-6.24h-17.25v5.09
				c0,0.31,0.12,0.58,0.35,0.81C1309.51,302.64,1309.78,302.75,1310.09,302.75z"/>
			<path style="fill:#494949;" d="M1342.48,306.91c-0.91-0.56-1.63-1.29-2.17-2.2c-0.54-0.91-0.81-1.9-0.81-2.98v-29.28h5v8.46
				h11.01v4.99h-11.01v15.68c0,0.31,0.12,0.58,0.35,0.81c0.23,0.23,0.5,0.35,0.81,0.35h9.85v4.99h-9.99
				C1344.4,307.75,1343.39,307.47,1342.48,306.91z"/>
			<path style="fill:#494949;" d="M1362.53,277.13v-4.99h4.99v4.99H1362.53z M1362.53,307.75v-26.82h4.99v26.82H1362.53z"/>
			<path style="fill:#494949;" d="M1378.93,306.91c-0.91-0.56-1.64-1.29-2.2-2.2c-0.56-0.91-0.83-1.9-0.83-2.98v-14.8
				c0-1.08,0.28-2.07,0.83-2.98c0.55-0.91,1.29-1.64,2.2-2.2s1.9-0.83,2.98-0.83h15.26c1.11,0,2.12,0.28,3.03,0.83
				s1.63,1.29,2.17,2.2c0.54,0.91,0.81,1.9,0.81,2.98v14.8c0,1.08-0.27,2.07-0.81,2.98c-0.54,0.91-1.26,1.64-2.17,2.2
				s-1.92,0.83-3.03,0.83h-15.26C1380.83,307.75,1379.83,307.47,1378.93,306.91z M1382.05,302.75h14.98c0.31,0,0.57-0.12,0.79-0.35
				c0.22-0.23,0.32-0.5,0.32-0.81v-14.52c0-0.31-0.11-0.58-0.32-0.81c-0.22-0.23-0.48-0.35-0.79-0.35h-14.98
				c-0.31,0-0.58,0.12-0.81,0.35c-0.23,0.23-0.35,0.5-0.35,0.81v14.52c0,0.31,0.12,0.58,0.35,0.81
				C1381.47,302.64,1381.74,302.75,1382.05,302.75z"/>
			<path style="fill:#494949;" d="M1411.46,307.75v-26.82h21.27c1.11,0,2.12,0.28,3.03,0.83s1.63,1.29,2.17,2.2
				c0.54,0.91,0.81,1.9,0.81,2.98v20.81h-5v-20.67c0-0.31-0.12-0.58-0.35-0.81c-0.23-0.23-0.5-0.35-0.81-0.35h-14.98
				c-0.31,0-0.58,0.12-0.81,0.35c-0.23,0.23-0.35,0.5-0.35,0.81v20.67H1411.46z"/>
		</g>
	</g>
</g>
</svg>
